<?xml version="1.0" standalone="no"?>
<!DOCTYPE svg PUBLIC "-//W3C//DTD SVG 20010904//EN"
 "http://www.w3.org/TR/2001/REC-SVG-20010904/DTD/svg10.dtd">
<svg version="1.0" xmlns="http://www.w3.org/2000/svg"
 width="2000.000000pt" height="2250.000000pt" viewBox="0 0 2000.000000 2250.000000"
 preserveAspectRatio="xMidYMid meet">

<g transform="translate(0.000000,2250.000000) scale(0.100000,-0.100000)"
fill="#EE004F" stroke="none">
<path d="M11783 20500 c-202 -21 -382 -73 -651 -187 -130 -55 -239 -122 -627
-387 -300 -204 -314 -212 -424 -249 -309 -103 -492 -68 -927 178 -372 212
-567 271 -805 246 -215 -23 -349 -85 -365 -169 -6 -28 -14 -38 -48 -53 -23
-10 -62 -21 -86 -25 -58 -8 -136 -47 -178 -87 -80 -76 -92 -166 -35 -262 11
-19 12 -19 48 -2 89 43 208 25 377 -57 97 -46 144 -85 135 -110 -7 -18 -120
-44 -249 -56 -184 -18 -395 10 -758 100 -291 73 -381 90 -496 97 -192 11 -315
-38 -420 -169 -28 -35 -100 -115 -159 -178 -59 -63 -116 -124 -126 -135 -10
-11 -33 -37 -51 -58 -35 -42 -126 -107 -258 -183 -133 -76 -267 -182 -377
-298 -111 -116 -218 -252 -240 -304 -33 -79 -277 -390 -447 -572 -44 -47 -152
-158 -239 -246 -93 -94 -157 -166 -153 -173 31 -49 239 58 510 263 49 37 91
65 93 62 7 -6 -63 -108 -136 -196 -64 -79 -71 -94 -46 -104 43 -16 209 83 386
230 54 46 104 84 109 84 5 0 -5 -37 -21 -82 -28 -82 -35 -119 -23 -131 19 -18
130 55 262 171 40 36 74 63 77 61 2 -3 -1 -24 -7 -47 -13 -50 -6 -74 19 -65
61 21 284 210 347 292 21 28 42 51 47 51 4 0 -12 -42 -37 -92 -34 -71 -44
-102 -42 -132 2 -22 8 -41 13 -43 6 -2 67 30 136 71 109 65 140 90 251 202 70
71 130 126 133 122 4 -4 -7 -57 -24 -118 -18 -60 -35 -133 -38 -161 -6 -51 -6
-51 18 -44 44 14 113 68 197 153 l82 85 -6 -73 c-7 -67 -6 -73 10 -67 10 4 21
7 25 7 19 0 97 73 180 169 83 95 143 151 162 151 5 0 -1 -25 -12 -57 -22 -65
-24 -103 -6 -103 42 0 187 110 321 243 43 43 80 77 81 75 2 -2 -1 -23 -5 -48
-5 -25 -9 -64 -10 -87 0 -75 30 -60 180 82 41 40 86 78 99 85 23 12 24 11 18
-16 -13 -69 -19 -152 -10 -157 29 -18 174 98 257 203 l27 35 -6 -50 c-23 -201
-11 -314 31 -307 30 6 79 47 129 111 25 32 56 63 69 69 23 10 25 7 65 -93 23
-56 41 -110 41 -119 0 -9 7 -16 15 -16 16 0 95 67 95 80 0 20 46 79 62 80 12
0 19 -14 28 -57 35 -182 35 -182 88 -144 50 37 109 114 151 199 29 57 51 73
51 36 0 -8 4 -14 8 -14 5 0 23 -31 41 -69 35 -71 119 -158 145 -148 16 7 42
99 57 202 6 44 12 81 14 83 8 8 46 -25 57 -48 16 -37 120 -100 228 -137 132
-46 210 -43 196 6 -19 68 -20 67 26 24 29 -28 53 -43 70 -43 21 0 25 -4 21
-20 -4 -14 0 -20 11 -20 9 0 16 -4 16 -10 0 -5 7 -10 15 -10 8 0 15 -4 15 -9
0 -5 14 -14 30 -21 17 -7 30 -15 30 -19 0 -7 255 -137 350 -179 52 -24 136
-52 152 -52 6 0 39 -29 73 -64 80 -82 154 -131 243 -161 81 -27 144 -58 159
-77 6 -7 18 -40 28 -72 21 -67 102 -185 157 -229 32 -26 47 -30 100 -31 49 -1
70 -6 94 -24 40 -30 106 -32 143 -5 15 12 30 36 36 60 l10 41 35 -46 c76 -99
163 -130 216 -77 17 17 36 25 59 25 18 0 46 5 62 11 38 14 83 58 83 82 0 10 7
25 15 33 43 44 -21 203 -104 260 -44 30 -49 30 -44 0 8 -42 -16 -39 -73 7 -55
46 -86 60 -156 72 -22 3 -38 12 -38 19 0 18 96 83 140 96 19 6 49 10 66 10 29
0 34 -4 47 -44 8 -24 23 -53 34 -64 28 -31 40 -47 44 -59 7 -20 85 -98 130
-129 117 -84 217 -124 304 -124 l37 0 -7 36 c-6 34 -5 36 17 31 13 -3 70 -11
128 -17 128 -15 210 -3 249 34 24 22 32 24 87 19 71 -6 164 18 164 44 0 8 -13
28 -30 43 -16 15 -30 32 -30 37 0 4 66 8 148 8 134 1 152 3 207 26 59 24 60
25 59 62 -1 41 -10 37 111 58 92 15 226 54 275 79 42 21 110 77 110 89 0 4
-26 13 -57 20 -32 7 -71 18 -88 26 -16 7 -93 38 -170 69 -77 31 -153 62 -170
70 -16 8 -131 41 -255 75 -124 34 -238 66 -255 72 -16 6 -46 15 -65 20 -104
30 -372 166 -454 231 -142 112 -275 231 -349 311 -48 52 -101 101 -117 109
-17 7 -30 16 -30 20 0 11 1 11 62 -16 117 -52 181 -56 155 -9 -7 11 -25 37
-41 57 -16 20 -27 39 -24 41 3 3 51 -18 107 -47 81 -41 106 -50 119 -41 21 14
17 39 -14 83 -13 19 -20 36 -15 38 6 2 63 -15 128 -37 114 -40 213 -61 213
-47 0 24 -58 123 -98 167 -26 29 -40 49 -32 44 8 -5 38 -23 65 -41 77 -49 166
-91 226 -107 99 -28 109 -29 109 -12 0 8 -4 15 -10 15 -13 0 -124 109 -117
116 3 3 63 -24 134 -60 178 -89 273 -114 273 -72 0 21 -54 99 -162 232 -127
157 -134 168 -78 122 142 -115 460 -281 460 -240 0 26 -24 69 -70 124 -49 59
-62 85 -37 75 6 -2 55 -32 107 -66 90 -58 182 -97 201 -85 15 9 -10 45 -77
116 -35 36 -64 73 -64 81 0 11 65 -22 198 -100 277 -163 461 -263 483 -263 10
0 19 6 19 13 0 17 -33 48 -144 136 -82 65 -123 107 -114 116 8 9 241 -76 325
-118 49 -25 163 -88 254 -140 266 -153 381 -205 549 -246 192 -47 268 -53 669
-58 l385 -5 -50 37 c-27 21 -57 45 -67 54 -11 9 -38 23 -60 32 -39 16 -40 17
-17 22 14 3 84 8 155 11 194 9 346 48 493 128 63 35 72 43 72 68 0 32 19 28
-230 50 -364 33 -795 144 -1157 299 -330 141 -631 305 -1207 659 -441 271
-682 409 -911 521 -223 110 -459 205 -545 219 -96 16 -263 22 -357 12z m275
-85 c227 -34 586 -213 1287 -642 681 -416 960 -565 1366 -728 375 -151 681
-231 1207 -316 39 -7 72 -16 72 -21 0 -12 -59 -37 -145 -60 -93 -26 -285 -34
-411 -19 -213 27 -473 107 -843 261 -95 39 -175 69 -178 67 -10 -11 64 -80
130 -121 86 -54 208 -109 504 -227 123 -48 237 -96 255 -106 l33 -18 -130 -3
c-204 -5 -433 29 -572 84 -114 45 -357 170 -522 269 -86 51 -347 220 -581 375
-600 399 -837 536 -1110 643 -196 77 -321 108 -505 127 -257 26 -480 -31 -835
-213 -462 -237 -624 -316 -704 -345 -78 -28 -100 -32 -192 -32 -97 0 -104 -1
-104 -20 0 -14 9 -21 33 -25 17 -3 66 -12 107 -19 69 -11 80 -16 121 -58 56
-56 149 -108 253 -143 43 -14 96 -37 117 -51 21 -13 43 -24 49 -24 22 0 110
-51 110 -64 0 -15 -30 -26 -72 -26 -50 0 -29 -18 30 -25 124 -14 167 -32 270
-109 53 -40 109 -81 125 -90 15 -10 27 -22 27 -27 0 -5 -36 -9 -80 -9 -73 0
-80 -2 -80 -20 0 -16 7 -20 31 -20 85 0 349 -122 349 -162 0 -5 -17 -8 -38 -7
-42 3 -62 -5 -62 -26 0 -9 31 -24 88 -41 92 -27 150 -52 167 -70 6 -6 42 -30
80 -54 39 -24 120 -76 180 -116 61 -40 136 -82 167 -94 31 -11 73 -32 92 -45
35 -24 118 -65 131 -65 7 0 252 -103 311 -131 23 -10 45 -19 49 -19 4 0 21 -6
38 -14 18 -8 50 -19 72 -26 41 -12 52 -16 115 -43 19 -8 62 -18 95 -22 33 -4
76 -11 95 -17 19 -5 62 -16 95 -24 32 -8 62 -18 65 -22 3 -4 39 -18 80 -31
l75 -24 -50 -23 c-132 -60 -356 -69 -580 -23 -106 21 -154 41 -395 163 -14 7
-54 23 -90 36 -36 13 -69 27 -75 31 -21 15 -182 60 -237 66 -50 5 -58 3 -58
-11 0 -10 8 -16 24 -16 14 0 71 -16 128 -36 153 -54 164 -69 61 -79 -93 -8
-113 -13 -113 -28 0 -7 10 -19 21 -27 12 -8 31 -23 43 -32 20 -17 20 -17 -30
-18 -29 0 -89 7 -134 16 -100 18 -124 8 -75 -33 68 -56 105 -95 105 -109 0
-10 -109 5 -162 22 -27 9 -53 25 -62 40 -13 19 -25 24 -60 24 -89 0 -289 -64
-390 -125 -48 -29 -70 -35 -140 -41 -121 -10 -200 8 -284 62 -66 43 -105 54
-117 33 -5 -6 -11 -4 -19 7 -11 15 -21 16 -82 7 -106 -15 -223 -1 -299 36 -34
17 -71 31 -82 31 -11 0 -32 9 -47 21 -15 12 -51 27 -80 35 -30 8 -67 21 -82
29 -16 8 -34 15 -40 15 -6 0 -22 8 -35 19 -13 10 -51 33 -84 51 -63 34 -124
71 -178 107 -146 98 -292 200 -342 238 -82 62 -215 197 -214 215 2 27 -1 38
-14 52 -15 15 -60 163 -55 179 2 6 16 0 33 -13 45 -36 136 -88 152 -88 18 0
13 19 -32 120 -19 41 -32 76 -31 78 2 1 38 -11 80 -28 42 -17 99 -34 126 -37
l50 -6 -31 84 c-36 101 -91 219 -120 261 -21 29 -21 30 -2 20 11 -6 42 -31 69
-54 51 -46 108 -88 118 -88 13 0 5 57 -14 98 -10 23 -17 42 -15 42 2 0 37 -20
79 -45 77 -45 126 -64 126 -49 0 5 -32 72 -70 148 -38 77 -68 141 -66 143 8 8
213 -39 256 -59 78 -35 100 -39 100 -19 0 26 -38 73 -134 165 -105 100 -109
117 -29 104 68 -11 135 -7 140 7 2 6 -42 56 -97 112 l-100 102 43 5 c240 27
326 47 481 112 93 39 144 69 511 299 471 296 732 409 1055 459 126 19 219 19
338 1z m-3460 -371 c134 -28 221 -69 558 -265 88 -52 208 -116 266 -144 98
-46 105 -52 101 -75 -3 -21 5 -31 53 -65 85 -59 125 -96 118 -107 -12 -19 -98
0 -188 41 -49 23 -91 39 -94 36 -3 -3 12 -24 34 -48 192 -203 244 -260 244
-268 0 -17 -57 -9 -155 21 -54 17 -106 30 -116 30 -10 0 -21 5 -24 10 -9 15
-25 12 -25 -4 0 -8 31 -61 69 -118 110 -166 115 -182 43 -143 -55 30 -108 79
-167 153 -22 28 -48 51 -57 52 -10 0 -18 -3 -18 -6 0 -11 25 -50 75 -119 29
-38 62 -90 75 -115 l23 -45 -77 73 c-76 72 -160 133 -204 146 -20 7 -21 5 -12
-19 6 -15 37 -75 70 -134 99 -178 135 -271 105 -271 -22 0 -89 35 -172 91 -97
66 -113 65 -74 -3 58 -103 85 -158 79 -164 -11 -10 -42 4 -76 36 -18 16 -37
30 -42 30 -5 0 -24 13 -42 28 -41 35 -68 46 -68 28 0 -7 7 -20 17 -27 9 -8 24
-32 34 -54 19 -43 36 -145 24 -145 -3 0 -33 21 -65 46 -48 38 -62 56 -76 98
-62 188 -212 402 -458 654 l-149 152 23 25 c27 29 30 86 7 132 -18 34 -99 119
-191 201 -57 51 -58 53 -53 93 3 23 16 52 28 65 82 87 367 137 557 98z m3158
-120 c22 -10 43 -32 55 -55 33 -66 54 -43 24 28 -8 19 -15 38 -15 41 0 2 24 2
54 -1 57 -6 129 -38 216 -97 51 -35 85 -63 303 -251 45 -40 109 -85 142 -100
33 -15 56 -28 52 -29 -19 -1 -163 68 -367 176 -379 198 -410 201 -222 18 107
-106 132 -135 132 -158 0 -27 -1 -28 -37 -22 -52 10 -276 119 -406 199 l-107
66 85 -97 c92 -105 93 -131 4 -63 -29 22 -75 52 -102 67 -40 22 -51 24 -58 13
-6 -10 -2 -20 14 -32 169 -138 224 -188 254 -226 29 -39 32 -47 18 -49 -51
-11 -140 35 -303 156 -75 56 -122 76 -122 54 0 -14 59 -96 120 -166 59 -67 86
-122 69 -140 -16 -18 -204 62 -358 153 -28 17 -53 31 -55 31 -1 0 17 -21 41
-47 52 -56 113 -142 113 -160 0 -9 -20 -5 -67 13 -103 40 -265 94 -280 94 -22
0 -15 -21 36 -112 l49 -88 -30 0 c-17 0 -75 20 -129 45 -54 25 -104 45 -111
45 -7 0 11 -24 40 -53 29 -29 52 -55 52 -59 0 -8 -74 7 -155 32 -137 43 -265
113 -265 144 0 19 67 76 89 76 15 0 56 -27 163 -110 28 -21 48 -26 48 -11 0 5
-16 31 -35 57 -19 27 -42 62 -51 78 -16 28 -16 31 5 47 12 10 42 25 66 35 l45
17 51 -32 c75 -46 78 -41 18 39 l-41 54 29 23 c48 39 92 46 194 28 50 -9 93
-14 95 -12 2 2 -14 17 -36 33 -22 16 -40 32 -40 36 0 4 23 20 52 34 64 33 121
29 214 -15 35 -17 64 -28 64 -26 0 3 -16 25 -35 51 -37 48 -51 84 -42 109 13
31 131 90 242 120 71 19 179 19 221 -1z m574 -102 c176 -89 452 -247 438 -250
-10 -2 -61 9 -114 23 -229 62 -397 153 -441 238 l-15 30 38 -6 c22 -4 64 -19
94 -35z m-4342 -16 c64 -32 172 -148 211 -226 34 -69 37 -90 19 -108 -19 -19
-45 -14 -116 24 l-67 36 73 -5 c93 -6 92 11 -4 37 -50 14 -106 19 -204 20
-124 1 -140 -1 -197 -25 l-62 -26 -6 52 c-6 41 -3 62 13 97 30 68 91 104 222
132 36 8 66 15 68 15 1 1 24 -10 50 -23z m4795 -297 c95 -33 302 -141 423
-221 144 -96 270 -215 250 -235 -13 -13 -122 54 -219 136 -108 92 -163 128
-175 116 -4 -4 82 -94 191 -201 116 -114 190 -194 179 -194 -52 1 -177 86
-411 280 -159 131 -209 166 -224 151 -5 -5 19 -47 57 -99 35 -50 79 -115 96
-146 l32 -56 -24 0 c-43 0 -121 48 -213 130 -80 72 -176 140 -198 140 -14 0
11 -35 96 -132 92 -104 137 -165 137 -185 0 -22 -57 -15 -113 13 -29 15 -113
68 -187 119 -132 90 -208 135 -230 135 -20 0 8 -37 125 -162 165 -176 239
-293 173 -272 -45 13 -145 68 -253 137 -102 66 -242 134 -253 123 -12 -12 149
-181 253 -264 32 -26 36 -32 19 -32 -11 0 -29 7 -39 15 -53 41 -368 239 -430
269 -63 31 -76 34 -128 29 l-57 -6 47 -22 c89 -42 373 -289 373 -324 0 -13 -1
-12 -204 78 l-158 70 -172 168 c-94 92 -173 174 -175 182 -5 21 41 9 152 -38
224 -95 256 -76 128 78 -34 40 -60 75 -58 77 2 3 81 -34 174 -82 129 -66 182
-88 221 -92 39 -3 52 -1 52 9 0 15 -138 154 -160 161 -8 3 -12 8 -9 12 3 4 39
-9 80 -29 77 -37 99 -42 99 -25 0 21 -33 75 -59 98 l-26 23 30 -5 c17 -3 84
-12 150 -21 66 -8 137 -17 157 -20 l37 -5 -66 65 c-37 35 -64 67 -62 70 3 2
30 -4 60 -15 47 -16 447 -120 464 -120 17 0 -22 45 -70 81 -73 55 -73 74 0 65
31 -3 84 -16 118 -27z m-5923 -134 c58 -7 159 -25 225 -40 642 -141 804 -157
1050 -104 120 26 195 25 223 -1 12 -12 22 -25 22 -30 0 -5 19 -31 43 -58 71
-83 137 -171 137 -184 0 -15 -87 -47 -172 -63 -51 -10 -161 -18 -288 -22 -203
-5 -207 -5 -399 31 -432 81 -782 121 -997 114 -158 -5 -182 -13 -235 -79 -40
-51 -182 -170 -283 -238 -41 -28 -180 -111 -311 -186 -130 -74 -264 -154 -298
-177 -80 -54 -197 -172 -377 -382 -168 -194 -398 -431 -429 -441 -11 -3 -21
-11 -21 -16 0 -21 -89 -104 -174 -160 -100 -68 -226 -134 -226 -120 0 5 138
150 306 323 298 304 356 370 481 548 33 47 104 146 157 220 l98 135 186 128
c366 250 495 355 607 498 39 48 94 117 123 153 122 149 269 190 552 151z
m4322 -196 c78 -27 220 -99 284 -144 109 -78 233 -230 207 -256 -5 -5 -45 18
-98 57 -118 86 -202 137 -218 131 -7 -3 40 -56 109 -123 67 -66 129 -134 139
-153 l17 -34 -29 7 c-46 11 -282 130 -368 186 -104 68 -125 88 -125 120 0 18
-8 31 -24 40 -24 12 -41 38 -32 47 2 2 48 -9 102 -26 116 -36 150 -40 133 -13
-6 9 -41 41 -79 71 -38 29 -81 66 -96 82 -27 28 -27 29 -6 29 12 0 50 -10 84
-21z m-4479 -261 c-99 -140 -142 -209 -137 -223 4 -8 10 -15 14 -15 13 0 61
50 128 133 69 86 133 137 169 137 31 0 115 -20 127 -31 5 -5 2 -19 -8 -33 -36
-56 -5 -84 46 -41 44 37 72 46 119 39 l39 -7 0 -54 c0 -39 -6 -62 -21 -82 -23
-32 -19 -54 9 -44 28 10 53 35 89 91 39 60 42 61 208 41 l93 -12 -4 -36 c-3
-20 -10 -55 -16 -79 -8 -32 -8 -46 0 -54 16 -16 50 18 92 92 19 33 41 60 49
60 9 0 53 -5 98 -11 l82 -12 3 -41 c4 -57 29 -59 78 -7 l39 41 95 0 94 0 -1
-46 c-1 -27 3 -49 9 -51 6 -2 26 18 43 45 29 46 34 50 84 56 28 3 70 6 92 6
l41 0 -4 -40 c-6 -56 19 -53 63 9 27 37 44 50 69 55 19 4 37 12 39 19 3 7 8 4
13 -8 5 -11 25 -46 44 -79 88 -148 91 -155 84 -205 -9 -66 -39 -119 -70 -127
-36 -9 -47 6 -52 73 -5 60 -22 89 -47 79 -9 -3 -30 -38 -48 -78 -19 -40 -42
-80 -51 -88 -17 -13 -21 -11 -43 15 -23 26 -25 35 -19 90 3 33 9 77 12 98 10
54 -7 46 -55 -27 -48 -74 -108 -130 -159 -147 -47 -15 -54 -3 -50 91 3 66 1
75 -14 75 -11 0 -27 -18 -40 -44 -30 -59 -77 -83 -173 -89 -85 -5 -125 2 -125
24 0 8 9 33 21 55 11 22 19 50 17 62 -2 18 -9 11 -34 -33 -32 -56 -70 -98 -80
-88 -3 3 0 33 7 67 10 45 10 64 2 72 -8 8 -15 5 -25 -12 -64 -104 -85 -133
-113 -155 -44 -34 -69 -32 -61 4 13 61 18 149 9 155 -6 4 -32 -20 -57 -53 -26
-33 -61 -67 -77 -75 l-29 -16 1 38 c0 21 3 69 8 106 6 60 5 70 -11 78 -14 8
-20 3 -33 -21 -24 -47 -124 -142 -183 -173 -30 -16 -56 -27 -58 -24 -3 2 2 35
11 71 20 89 20 137 0 129 -9 -3 -25 -23 -35 -44 -38 -73 -150 -159 -207 -159
-19 0 -21 4 -16 43 3 23 9 47 13 52 14 18 22 74 15 105 l-6 29 -52 -52 c-80
-81 -261 -221 -337 -261 -37 -20 -70 -36 -73 -36 -15 0 21 70 69 133 48 63 59
97 32 97 -6 0 -39 -27 -74 -59 -84 -79 -232 -181 -357 -247 -56 -29 -105 -54
-109 -54 -19 0 -4 32 42 96 28 38 50 72 50 77 0 4 31 45 68 90 38 45 97 122
133 172 95 133 153 200 215 247 60 45 139 77 192 78 l32 0 -37 -52z m-523
-315 c0 -3 -37 -56 -82 -116 -79 -104 -88 -112 -190 -173 -120 -72 -255 -138
-306 -149 -32 -7 -33 -6 -27 22 12 55 76 174 98 183 12 4 61 20 109 35 79 24
194 86 333 177 39 26 65 35 65 21z m1155 -198 l-7 -100 -104 -112 c-105 -112
-213 -203 -241 -203 -42 0 31 180 138 341 48 72 82 111 137 154 39 32 73 63
73 69 7 46 10 -69 4 -149z m-250 69 c-4 -21 -1 -48 5 -65 11 -25 9 -35 -20
-86 -72 -128 -206 -309 -276 -374 -42 -39 -145 -109 -161 -109 -7 0 -13 11
-13 25 0 33 36 127 60 158 11 14 20 33 20 42 0 10 19 53 42 97 33 62 65 101
148 182 91 89 183 166 198 166 2 0 1 -16 -3 -36z m-275 5 c0 -6 -9 -57 -21
-112 -21 -104 -59 -191 -91 -208 -10 -5 -18 -14 -18 -20 0 -36 -173 -264 -265
-347 -73 -67 -90 -68 -81 -4 23 160 113 373 215 509 64 85 105 127 165 167 39
26 96 35 96 15z m1565 -29 c-4 -12 -2 -20 6 -20 14 0 5 -118 -16 -187 -14 -47
-131 -263 -148 -275 -28 -18 -57 33 -57 101 0 20 -4 51 -9 69 -8 26 -5 46 11
91 14 38 19 68 14 85 -6 26 -8 27 -28 14 -12 -8 -45 -54 -74 -102 -72 -120
-109 -165 -158 -187 -41 -18 -41 -18 -49 4 -5 13 -4 74 3 144 7 67 11 132 8
146 -4 22 -1 24 73 35 89 13 134 32 166 70 21 25 22 25 29 7 35 -100 45 -104
112 -47 90 74 130 92 117 52z m506 -60 c14 -46 36 -71 48 -52 4 7 24 -6 57
-36 110 -103 141 -129 197 -165 65 -43 87 -78 87 -137 0 -36 -3 -40 -24 -40
-28 0 -141 34 -174 53 -12 7 -53 43 -90 80 -56 54 -72 78 -91 132 -13 36 -27
68 -32 71 -6 3 -9 -56 -7 -148 2 -112 -1 -162 -11 -185 -7 -18 -18 -33 -23
-33 -5 0 -34 19 -63 42 -63 49 -75 82 -75 210 l0 84 78 82 c44 45 86 82 95 82
10 0 21 -15 28 -40z m-1349 -87 c13 -16 -13 -52 -79 -114 -53 -50 -91 -74
-101 -65 -10 10 27 159 51 206 13 25 39 55 57 68 l35 23 13 -53 c8 -29 18 -58
24 -65z m158 98 c0 -37 24 -43 80 -21 58 23 65 21 74 -16 5 -19 0 -37 -19 -65
-35 -54 -124 -140 -174 -167 l-41 -23 0 37 c0 45 60 274 72 274 4 0 8 -8 8
-19z m927 -28 c10 -27 18 -70 17 -98 -2 -101 -121 -353 -175 -370 -11 -4 -21
-5 -22 -3 -1 1 -13 19 -27 38 -21 30 -25 45 -23 100 1 36 8 96 16 133 13 59
21 74 62 114 25 25 60 66 76 90 17 23 36 43 44 43 7 0 22 -21 32 -47z m-2272
-84 c-29 -63 -33 -109 -9 -109 9 0 36 18 60 40 40 36 64 49 64 34 0 -3 -56
-90 -124 -193 -168 -255 -271 -359 -413 -416 -78 -32 -79 -20 -11 114 134 262
315 515 403 563 27 15 51 25 53 24 1 -2 -9 -27 -23 -57z m-836 -119 c-14 -39
-20 -72 -16 -94 5 -31 -1 -41 -72 -122 -43 -49 -113 -123 -157 -164 -43 -41
-92 -95 -109 -119 -63 -94 -315 -325 -333 -306 -20 19 269 417 396 545 46 46
105 111 132 145 26 33 76 86 109 118 34 32 61 63 62 70 0 9 2 9 5 0 3 -7 -5
-39 -17 -73z m621 20 c-20 -37 -183 -235 -300 -364 -150 -166 -280 -280 -280
-245 0 27 48 115 123 226 41 61 80 128 87 149 14 41 76 134 90 134 5 0 12 -4
15 -10 12 -19 43 -10 96 27 30 20 76 51 103 70 56 39 83 44 66 13z m-260 -6
c0 -4 -25 -36 -55 -71 -30 -36 -67 -86 -82 -111 -34 -59 -207 -265 -311 -370
-77 -77 -189 -169 -196 -161 -8 8 33 110 70 177 20 37 89 147 153 244 l116
177 97 46 c141 66 208 89 208 69z m6455 -504 c3 -5 15 -10 26 -10 10 0 19 -4
19 -10 0 -5 9 -10 20 -10 11 0 20 -4 20 -9 0 -10 133 -72 255 -117 50 -19 104
-41 120 -48 104 -48 123 -56 138 -56 56 0 -55 -50 -167 -75 -35 -7 -180 21
-215 43 -78 47 -139 88 -164 109 -16 13 -33 23 -38 23 -20 0 22 -58 91 -125
76 -73 130 -163 107 -177 -6 -4 -16 -3 -22 1 -5 5 -44 19 -85 32 -41 13 -76
27 -78 31 -2 5 -9 8 -16 8 -7 0 -55 27 -107 60 -92 60 -134 78 -146 66 -3 -3
7 -16 23 -28 64 -50 155 -143 161 -166 6 -26 -8 -40 -55 -54 -40 -12 -126 9
-215 51 -118 56 -173 108 -205 192 l-10 26 78 -5 c100 -6 150 3 150 26 0 9
-16 37 -35 61 -19 24 -35 45 -35 46 0 1 14 0 30 -3 48 -7 176 8 197 23 17 13
17 15 -11 44 -19 19 -26 35 -20 40 18 18 179 27 189 11z m-644 -191 c27 -30
47 -84 36 -96 -3 -2 -29 7 -57 21 -28 14 -58 26 -65 26 -8 0 -19 9 -25 19 -8
16 -4 23 23 40 43 28 55 26 88 -10z m-1311 -9 c25 -4 101 -11 170 -15 69 -4
131 -12 138 -18 9 -7 16 -7 24 1 19 19 26 14 46 -32 11 -24 36 -61 56 -83 19
-22 33 -43 29 -47 -3 -3 -31 -6 -60 -6 -30 0 -62 -4 -71 -9 -22 -12 -243 98
-342 169 -70 51 -86 68 -52 55 9 -3 37 -10 62 -15z m796 -155 c37 -38 65 -45
145 -38 l58 6 49 -51 c73 -75 140 -85 127 -20 l-6 33 22 -25 c12 -14 33 -49
47 -78 20 -44 22 -58 13 -78 -12 -28 -28 -29 -95 -9 -58 18 -123 54 -150 84
-34 37 -78 23 -51 -17 27 -38 175 -134 216 -139 33 -5 37 -8 27 -20 -36 -44
-101 -53 -183 -24 -43 15 -58 28 -109 96 -62 81 -83 87 -47 12 32 -67 80 -118
134 -143 48 -22 49 -23 24 -29 -92 -23 -185 79 -252 276 -24 71 -77 153 -119
187 -23 17 -22 17 47 14 63 -4 73 -8 103 -37z m460 31 c8 -8 40 -19 72 -25 80
-16 121 -39 158 -91 35 -48 43 -80 19 -80 -25 0 -143 46 -159 63 -9 9 -24 18
-34 22 -16 6 -78 83 -89 111 -7 18 14 18 33 0z m-627 -105 c10 -10 37 -44 61
-74 35 -47 41 -61 35 -87 -8 -36 -21 -39 -29 -5 -15 61 -126 137 -126 87 0
-28 77 -130 110 -147 35 -18 82 -19 98 -3 9 9 12 7 12 -10 0 -70 -71 -113
-133 -80 -44 23 -100 74 -153 141 -54 66 -101 153 -90 164 3 3 18 0 34 -6 26
-11 34 -9 67 13 45 31 88 33 114 7z m-227 -74 c12 -57 42 -108 99 -171 28 -31
48 -56 44 -56 -4 0 -34 14 -66 31 -61 33 -91 65 -128 136 -26 51 -27 79 -3 92
29 18 46 8 54 -32z"/>
<path d="M8271 19845 c-35 -8 -74 -21 -87 -30 -13 -8 -35 -15 -49 -15 -44 0
-21 -15 70 -45 l86 -28 44 21 c52 25 115 79 115 98 0 18 -91 18 -179 -1z m59
-45 c0 -15 -49 -32 -71 -25 -20 7 -24 17 -12 28 10 11 83 8 83 -3z"/>
<path d="M10220 16664 c-751 -53 -1443 -350 -2077 -891 -156 -133 -452 -436
-584 -598 -1198 -1464 -1758 -3642 -1509 -5862 181 -1614 807 -3075 1743
-4069 63 -67 74 -83 47 -67 -66 39 -216 121 -308 167 l-92 46 0 -81 c0 -45 7
-128 16 -186 31 -215 85 -350 231 -583 44 -69 83 -131 87 -139 18 -29 -582
395 -835 590 -235 182 -348 293 -528 517 l-82 103 -6 147 c-8 216 2 268 91
469 174 395 191 504 130 811 -43 219 -127 449 -209 571 -62 95 -214 214 -465
366 -51 31 -94 55 -95 53 -2 -2 -13 -55 -24 -118 -57 -301 -106 -486 -157
-594 -56 -118 -66 -227 -38 -414 32 -219 94 -361 210 -477 87 -89 136 -160
168 -248 22 -59 42 -157 33 -157 -8 0 -217 265 -347 440 -123 166 -323 459
-440 645 l-63 100 7 124 c8 153 31 319 50 364 16 39 52 66 211 157 307 176
433 303 491 495 16 50 18 95 18 280 -1 233 -6 312 -55 765 -29 262 -31 304
-26 523 4 178 2 237 -6 234 -372 -143 -641 -290 -804 -441 -126 -117 -186
-235 -239 -468 -42 -183 -55 -305 -61 -548 -7 -300 2 -382 72 -629 87 -308
102 -439 28 -251 -147 374 -254 884 -314 1501 l-23 229 255 257 c460 467 666
713 736 885 39 95 79 267 100 423 15 115 18 209 18 527 0 212 -3 390 -7 394
-19 18 -506 -291 -673 -428 -152 -124 -231 -251 -355 -568 l-60 -155 5 85 c33
541 52 667 121 805 71 144 200 268 409 395 188 114 288 181 385 259 121 97
470 444 583 581 137 165 217 346 233 530 8 89 -5 120 -50 120 -25 0 -36 -5
-41 -19 -6 -21 -38 -36 -225 -106 -205 -78 -713 -326 -814 -398 l-28 -20 7 44
c27 166 144 371 335 588 155 175 218 220 655 466 470 266 518 308 930 830 102
129 167 198 233 247 59 44 78 74 68 111 -18 74 -212 63 -682 -38 -247 -52
-345 -96 -510 -223 -158 -123 -312 -292 -529 -582 -60 -80 -126 -165 -147
-190 -149 -170 -488 -771 -552 -975 -14 -44 -47 -150 -74 -235 l-50 -155 -1
100 c-2 198 -31 652 -46 740 -15 83 -78 362 -108 480 -12 45 -16 50 -43 53
-18 2 -36 -3 -43 -12 -7 -8 -24 -86 -37 -173 -33 -215 -48 -270 -152 -553
-159 -432 -189 -550 -178 -715 10 -169 40 -310 131 -620 l38 -130 -12 -160
c-10 -120 -24 -206 -56 -345 -52 -224 -90 -410 -110 -547 -20 -137 -45 -401
-45 -479 0 -104 -16 -81 -34 49 -49 352 -166 642 -332 826 -94 104 -723 546
-745 524 -14 -14 -87 -327 -114 -485 -58 -347 -50 -632 21 -804 71 -171 280
-414 534 -619 148 -119 294 -218 497 -333 l161 -92 6 -83 c3 -45 10 -192 16
-327 5 -135 17 -292 26 -350 15 -108 70 -388 81 -416 3 -9 -25 4 -63 29 -164
106 -557 323 -1107 611 -171 90 -411 223 -532 296 -342 206 -391 227 -438 190
-32 -26 -33 -34 -6 -136 36 -140 299 -997 326 -1063 63 -152 214 -370 368
-530 187 -195 377 -312 570 -350 185 -37 546 -66 988 -79 l228 -7 58 -136 c66
-155 142 -302 244 -469 113 -185 321 -491 469 -688 75 -100 132 -179 125 -175
-68 40 -170 110 -264 178 -157 116 -278 160 -554 204 -233 38 -364 45 -749 46
-340 0 -379 -2 -423 -18 -137 -53 -100 -145 162 -407 246 -246 482 -423 640
-480 282 -103 999 -150 1306 -86 78 17 203 32 311 40 l71 5 129 -152 c291
-341 486 -534 709 -701 176 -131 593 -406 1068 -701 414 -258 417 -260 375
-263 -56 -4 -117 27 -443 228 -520 320 -755 458 -811 480 -137 51 -419 97
-736 120 -246 17 -350 12 -778 -35 -223 -25 -457 -48 -520 -51 -167 -9 -195
-37 -126 -124 81 -102 456 -386 781 -591 320 -201 948 -429 1338 -485 166 -24
237 -14 832 112 l270 57 375 1 375 1 95 -44 c132 -60 298 -153 405 -225 89
-61 268 -144 573 -267 72 -29 132 -56 132 -59 0 -6 -672 -546 -915 -735 -115
-90 -128 -89 163 -10 366 98 589 135 821 135 l139 0 28 38 c15 20 86 108 157
195 107 131 133 158 151 154 11 -3 314 -118 671 -257 704 -273 723 -280 770
-280 139 0 259 129 226 242 -21 68 -62 102 -182 153 -162 68 -467 185 -859
330 -190 70 -349 130 -353 135 -9 8 198 207 328 315 175 145 409 284 564 334
168 54 376 64 746 36 288 -23 657 -30 820 -16 434 36 782 149 1085 351 93 62
282 211 276 217 -2 2 -56 -3 -119 -11 -170 -22 -467 -36 -865 -38 -193 -2
-349 -2 -345 -1 9 3 313 61 544 103 296 56 609 175 934 357 164 92 436 256
431 260 -2 2 -161 -14 -352 -36 -192 -22 -428 -47 -524 -56 -96 -8 -206 -18
-243 -21 l-68 -6 31 44 c24 34 33 59 37 105 7 75 -8 123 -54 174 l-34 38 53
35 53 36 11 -45 c27 -106 95 -166 194 -173 83 -6 138 16 193 78 83 92 89 198
16 291 l-28 37 42 10 c23 6 274 71 557 145 480 126 525 139 656 199 351 160
670 378 948 648 124 121 374 390 361 390 -3 0 -61 -30 -128 -67 -507 -276
-879 -414 -1317 -488 -251 -42 -430 -94 -599 -171 -41 -19 -75 -33 -77 -31 -1
1 77 68 174 148 l177 146 406 75 407 76 143 69 c331 160 557 334 755 582 46
58 82 106 81 108 -2 1 -248 -53 -548 -121 -505 -115 -554 -127 -678 -180 -74
-31 -136 -54 -138 -52 -2 2 35 65 83 140 l87 137 17 -29 c26 -42 66 -70 124
-87 215 -64 391 216 238 379 -32 34 -96 65 -136 66 -21 0 -27 4 -22 16 3 9 6
17 6 20 0 2 18 13 39 23 44 23 109 94 118 129 l5 23 22 -20 c56 -53 167 -67
242 -30 90 43 155 160 139 247 -17 89 -88 166 -167 178 l-38 7 16 26 c13 21
39 34 135 65 144 46 364 152 479 231 432 294 704 720 883 1383 15 54 20 89 14
84 -81 -60 -193 -156 -282 -242 -60 -58 -140 -133 -177 -167 -104 -95 -553
-426 -533 -392 5 7 90 117 190 242 99 125 197 251 218 280 112 152 187 380
217 662 12 111 26 613 17 605 -3 -3 -30 -75 -60 -160 -90 -258 -157 -372 -462
-780 -92 -124 -204 -280 -248 -347 -45 -67 -83 -120 -84 -119 -3 3 35 353 42
391 4 17 13 20 62 21 71 1 127 28 175 84 126 147 35 362 -154 364 -56 1 -58 2
-58 29 0 32 -2 31 43 12 77 -32 198 -5 254 56 57 63 79 178 48 252 -19 47 -78
103 -123 118 -20 7 -62 9 -99 6 -62 -5 -64 -4 -59 17 3 11 8 41 12 66 6 41 19
58 153 195 179 184 251 279 380 505 143 250 188 366 225 580 21 116 30 385 19
540 l-8 114 -369 -554 c-202 -305 -366 -548 -363 -540 3 8 42 105 87 215 245
602 354 946 485 1540 5 24 -6 11 -177 -200 -129 -159 -287 -391 -383 -564
-100 -180 -237 -481 -310 -685 -34 -93 -31 -98 -80 103 l-36 143 21 15 c11 8
34 38 50 67 25 44 37 55 71 65 58 17 134 91 153 148 51 149 -44 294 -194 296
-25 0 -55 -3 -67 -7 -19 -6 -22 -2 -28 33 -3 22 -20 60 -36 85 l-29 46 33 0
c46 0 128 41 161 81 41 49 59 96 59 159 0 122 -91 213 -213 213 l-56 0 13 61
c20 90 19 267 -1 351 -10 39 -19 102 -20 140 -4 92 -42 201 -168 479 -239 529
-274 663 -265 1001 l5 200 -39 -120 c-150 -457 -197 -694 -206 -1035 -5 -184
-2 -242 16 -390 12 -96 24 -186 26 -200 13 -67 -353 659 -406 805 -18 50 -40
98 -50 108 -16 18 -14 21 26 61 45 46 75 115 75 176 0 56 -47 140 -97 173 -33
22 -43 35 -43 55 -1 98 -107 192 -216 192 -78 0 -185 -71 -215 -142 l-11 -28
-229 222 c-221 216 -231 225 -331 275 -184 93 -415 158 -649 184 -108 12 -608
7 -629 -6 -7 -4 39 -35 105 -71 230 -127 326 -206 635 -525 239 -246 247 -253
327 -290 112 -51 354 -143 433 -165 36 -9 69 -20 73 -24 4 -4 3 -27 -2 -51
-28 -125 76 -258 203 -259 71 0 118 21 179 82 l59 58 60 -32 c41 -22 73 -49
102 -87 74 -95 172 -252 224 -356 49 -98 112 -247 112 -265 0 -5 -25 2 -55 15
-76 34 -275 90 -425 119 -219 44 -395 101 -664 217 -88 38 -162 67 -164 64 -6
-6 103 -210 172 -325 77 -126 176 -263 275 -381 85 -102 295 -308 333 -327 13
-6 145 -59 293 -118 149 -58 330 -135 403 -171 l132 -64 -33 -40 c-101 -117
-63 -296 75 -353 51 -22 124 -20 177 5 l45 20 30 -31 31 -30 -29 0 c-92 0
-200 -83 -225 -173 -35 -125 30 -245 153 -278 54 -15 137 1 182 36 19 14 39
23 44 20 6 -4 10 -77 10 -184 l0 -177 -152 151 c-172 170 -310 287 -543 462
-163 122 -589 423 -598 423 -3 0 25 -51 62 -114 54 -90 75 -138 100 -228 88
-311 103 -345 187 -448 64 -80 228 -239 347 -339 48 -40 87 -75 87 -77 0 -2
-112 84 -250 192 -292 228 -524 396 -528 383 -2 -5 6 -55 18 -112 103 -474
347 -827 772 -1115 161 -108 477 -336 477 -343 1 -4 -13 -12 -30 -20 -109 -45
-171 -194 -125 -303 19 -46 82 -104 127 -117 l37 -12 -35 -30 c-66 -58 -96
-153 -73 -237 18 -67 91 -135 162 -149 32 -7 67 -7 90 -2 l36 9 -5 -57 c-12
-139 -33 -344 -44 -431 l-13 -95 -17 120 c-36 264 -70 360 -163 463 -110 124
-315 441 -388 602 -17 36 -54 127 -84 202 -29 76 -61 152 -70 170 -34 69 -109
198 -115 198 -4 0 -10 -80 -14 -177 -17 -449 57 -848 245 -1313 27 -68 48
-125 46 -128 -3 -2 -19 24 -36 59 -32 62 -502 812 -525 837 -28 30 -75 -333
-75 -575 0 -260 36 -494 115 -740 40 -124 64 -161 248 -370 115 -132 194 -239
236 -320 26 -51 26 -63 4 -63 -26 -1 -104 -38 -132 -63 -61 -56 -91 -196 -56
-257 20 -36 20 -37 -30 -44 -24 -4 -64 -18 -89 -31 l-45 -24 -5 52 c-6 53 -46
565 -46 588 0 19 -35 -16 -105 -106 -148 -190 -256 -408 -387 -775 l-59 -165
6 105 c12 225 53 424 124 594 22 53 38 96 35 96 -16 0 -181 -126 -244 -187
-247 -235 -426 -663 -570 -1360 -30 -147 -31 -156 -21 -272 14 -169 -7 -344
-55 -459 l-14 -33 -36 35 c-53 52 -127 73 -196 57 -97 -22 -167 -92 -189 -189
-25 -105 42 -216 150 -251 l50 -16 -53 -69 c-64 -83 -86 -98 -86 -61 0 63 -74
151 -145 175 -36 12 -124 10 -156 -4 -13 -6 -6 24 31 131 26 76 51 149 55 162
6 19 -6 14 -66 -34 -41 -32 -81 -63 -89 -69 -8 -6 2 12 23 39 229 308 464 699
629 1044 664 1393 913 3069 703 4729 -249 1958 -1133 3631 -2395 4532 -472
337 -1013 552 -1575 625 -117 15 -465 27 -575 19z m352 -164 c424 -25 790
-119 1175 -305 422 -203 774 -462 1138 -837 946 -974 1581 -2474 1745 -4123
32 -323 40 -508 40 -890 0 -386 -9 -571 -41 -895 -238 -2396 -1447 -4385
-3068 -5045 -521 -212 -1096 -276 -1646 -184 -884 148 -1731 714 -2388 1594
-1184 1586 -1648 3968 -1211 6210 235 1201 720 2268 1405 3090 113 136 370
397 504 512 616 533 1307 832 2010 873 72 4 139 8 150 8 11 1 95 -3 187 -8z
m3043 -650 c246 -20 443 -71 640 -164 l110 -53 258 -249 c175 -170 264 -264
279 -293 12 -25 40 -57 63 -73 36 -26 44 -38 55 -85 10 -45 21 -65 60 -104 40
-40 57 -50 109 -60 76 -16 105 -44 142 -139 15 -38 26 -70 24 -70 -2 0 -24 28
-49 62 -56 76 -90 99 -271 188 -77 38 -160 80 -185 94 -26 14 -85 31 -140 41
-183 32 -555 175 -641 246 -25 21 -124 122 -221 226 -198 211 -324 326 -468
425 -25 17 -24 17 41 17 36 1 124 -4 194 -9z m-6537 -562 c-35 -35 -108 -119
-163 -188 -54 -69 -142 -179 -194 -245 -200 -251 -330 -352 -781 -605 -339
-191 -386 -224 -531 -369 -246 -246 -389 -477 -435 -701 -17 -85 -14 -128 11
-167 23 -35 59 -29 141 26 79 53 335 185 579 299 142 65 403 168 409 160 10
-10 -40 -174 -74 -243 -60 -124 -269 -369 -490 -574 -218 -203 -297 -264 -515
-396 -300 -181 -439 -314 -525 -498 -76 -162 -108 -429 -130 -1072 -5 -170
-12 -368 -14 -440 -3 -71 -1 -123 3 -115 5 8 43 139 86 290 152 539 291 872
418 1001 67 68 271 219 437 322 77 48 146 90 153 93 30 11 28 -503 -3 -752
-35 -277 -79 -407 -195 -568 -128 -179 -473 -556 -748 -817 l-149 -143 6 -90
c22 -296 76 -693 132 -976 91 -459 192 -757 365 -1075 l74 -135 3 215 c3 245
-5 301 -83 569 -52 181 -62 238 -71 411 -12 243 31 632 91 825 61 192 139 291
332 420 94 64 393 221 469 247 l29 10 0 -201 c1 -143 7 -255 23 -386 39 -326
52 -490 59 -715 9 -332 -10 -405 -140 -542 -78 -82 -148 -132 -351 -248 -155
-89 -210 -136 -225 -192 -23 -78 -40 -204 -52 -369 l-12 -169 88 -140 c148
-235 309 -469 490 -710 196 -261 432 -548 444 -540 16 9 33 168 26 239 -9 94
-46 206 -92 285 -21 35 -78 107 -126 158 -92 98 -127 158 -160 273 -28 98 -47
230 -47 332 0 95 2 105 39 187 47 105 89 247 131 451 18 85 33 156 35 157 4 5
232 -151 298 -204 38 -30 82 -74 99 -96 109 -150 219 -501 234 -748 10 -163
-17 -267 -148 -559 -93 -207 -98 -231 -98 -486 0 -181 2 -213 16 -225 9 -7 52
-60 97 -118 208 -271 460 -487 1052 -901 245 -172 765 -523 765 -516 0 3 -46
67 -101 143 -246 334 -425 633 -468 778 -20 69 -51 229 -51 267 0 17 14 12
108 -38 318 -169 612 -364 732 -484 167 -166 347 -420 535 -755 67 -120 124
-208 153 -238 138 -143 493 -363 896 -557 100 -48 202 -95 228 -106 27 -10 48
-22 48 -25 0 -5 -140 -116 -166 -132 -13 -7 -408 152 -583 234 -58 27 -148 78
-202 114 -117 78 -379 215 -469 246 -62 21 -80 22 -410 21 -391 0 -389 0 -802
-87 -328 -69 -483 -95 -574 -95 -242 0 -791 168 -1202 367 -183 89 -620 384
-860 582 l-73 60 33 5 c18 3 227 25 463 51 333 35 467 45 595 45 329 0 752
-53 915 -115 71 -27 125 -58 610 -355 521 -319 553 -337 620 -355 177 -45 320
32 228 124 -16 15 -233 154 -483 310 -854 533 -1105 709 -1362 959 -141 137
-523 564 -523 584 0 4 -73 76 -162 160 -188 178 -263 263 -458 523 -346 461
-583 851 -719 1181 l-58 142 -45 6 c-25 3 -116 6 -202 6 -414 0 -943 46 -1102
96 -149 47 -340 185 -490 357 -96 109 -224 298 -272 399 -43 89 -354 1094
-343 1106 6 5 20 -3 306 -173 140 -83 332 -191 425 -240 742 -385 1229 -660
1312 -739 28 -27 76 -104 144 -226 55 -102 105 -189 109 -193 4 -5 -10 54 -32
130 -120 427 -185 716 -207 933 -29 279 -47 1129 -32 1460 21 436 55 686 147
1085 56 239 76 383 77 540 0 66 -7 104 -41 215 -115 380 -147 613 -107 788 17
73 110 349 200 592 31 85 68 200 80 255 13 55 24 97 24 93 1 -3 12 -57 25
-120 14 -62 30 -151 35 -198 18 -143 41 -712 42 -1037 l0 -308 74 225 c41 124
109 335 151 470 93 301 101 321 185 491 129 260 308 554 424 699 33 41 122
156 197 255 321 425 545 616 800 684 141 38 557 116 641 120 12 1 -2 -19 -45
-61z m8103 26 c25 -13 69 -80 57 -88 -2 -1 -21 -8 -43 -14 -58 -17 -100 -46
-133 -91 l-29 -40 -21 22 c-45 48 -50 111 -14 166 38 57 121 77 183 45z m156
-229 c34 -34 35 -38 31 -90 -5 -59 -28 -94 -80 -121 -107 -56 -219 58 -163
165 27 53 71 81 127 81 44 0 54 -4 85 -35z m724 -397 c22 -56 81 -193 131
-303 142 -314 161 -368 164 -455 1 -41 10 -102 20 -135 14 -45 18 -91 18 -185
-1 -144 -25 -259 -73 -344 -41 -71 -54 -147 -42 -227 6 -35 11 -67 11 -70 0
-3 -18 -11 -40 -18 -22 -6 -59 -30 -82 -51 l-41 -40 -96 93 c-81 79 -113 102
-206 149 -124 63 -296 137 -560 240 -125 48 -194 81 -225 106 -75 61 -228 221
-311 325 -100 124 -269 375 -269 400 0 3 32 -7 71 -23 165 -69 427 -146 559
-165 53 -8 235 -57 323 -87 109 -37 160 -69 250 -156 48 -47 87 -81 87 -76 0
5 -14 54 -31 108 -17 54 -29 100 -26 102 8 8 138 -277 222 -489 48 -120 89
-217 90 -215 1 2 -26 229 -60 505 -74 593 -80 672 -66 863 11 144 42 358 62
435 l11 40 34 -112 c18 -62 52 -158 75 -215z m-1189 95 c46 -26 84 -48 86 -49
10 -6 -23 -48 -51 -64 -39 -24 -114 -26 -145 -4 -45 31 -63 94 -42 150 9 23
15 26 40 21 16 -4 67 -28 112 -54z m1703 -1519 c37 -17 65 -65 65 -111 0 -30
-32 -89 -59 -110 -53 -41 -133 -32 -175 18 -32 37 -32 51 -4 124 33 88 96 116
173 79z m726 -406 c-113 -400 -224 -694 -605 -1602 -125 -296 -225 -540 -224
-542 2 -1 257 381 567 849 l564 852 -6 -150 c-11 -271 -69 -463 -212 -705 -18
-30 -51 -87 -74 -127 -76 -131 -192 -276 -334 -416 l-140 -139 -42 -231 c-39
-212 -43 -256 -54 -502 -18 -430 -53 -725 -150 -1259 l-59 -326 -43 -53 c-24
-28 -49 -60 -57 -69 -9 -10 -13 -18 -10 -18 3 0 101 76 218 170 117 93 313
240 434 327 334 237 445 324 592 464 74 71 136 129 139 129 6 0 -55 -166 -98
-265 -235 -544 -616 -899 -1157 -1078 l-131 -43 -50 -80 c-28 -43 -69 -97 -91
-118 -22 -21 -47 -55 -55 -74 l-14 -34 -22 20 c-31 29 -90 52 -133 52 -30 0
-34 2 -25 14 16 19 -46 210 -109 336 -62 122 -120 203 -267 370 -65 74 -134
158 -154 185 -57 79 -120 298 -155 535 -29 200 -21 662 11 629 7 -8 91 -138
187 -289 135 -216 240 -402 478 -852 167 -318 306 -575 308 -573 4 4 -72 292
-124 466 -44 151 -87 264 -222 594 -165 403 -228 598 -271 840 -20 116 -46
384 -39 406 2 7 15 -17 27 -52 82 -227 314 -617 462 -775 113 -121 135 -212
184 -754 20 -214 50 -430 58 -410 3 8 26 119 51 245 49 249 97 570 118 785 14
150 18 854 5 931 -8 45 -11 48 -100 107 -51 33 -186 128 -301 212 -116 84
-248 178 -295 208 -240 155 -436 359 -567 589 -43 76 -112 239 -132 315 -9 34
-9 37 6 29 9 -5 148 -112 307 -236 580 -453 812 -630 895 -678 l30 -18 -21 58
c-43 116 -67 159 -127 233 -68 84 -120 132 -337 309 -307 251 -489 431 -549
541 -23 42 -106 306 -106 338 0 7 66 -36 148 -94 427 -309 684 -539 896 -802
54 -67 100 -122 101 -122 1 0 1 64 -1 143 -13 508 -13 478 9 475 16 -2 24 -16
34 -58 16 -65 118 -458 134 -515 l11 -40 68 195 c37 107 91 254 119 325 70
173 243 523 326 660 73 120 207 316 213 310 2 -2 -14 -68 -37 -147z m-1282
-24 c57 -59 72 -81 69 -101 -7 -61 -116 -87 -178 -43 -39 28 -57 84 -41 133
11 33 55 87 71 87 4 0 40 -34 79 -76z m371 21 c106 -55 60 -228 -63 -242 -141
-16 -190 161 -65 237 39 24 88 26 128 5z m300 -200 c42 -22 60 -53 60 -105 0
-54 -27 -103 -69 -125 -39 -20 -38 -20 -51 21 -15 45 -61 98 -100 114 -36 15
-36 17 -7 52 45 55 111 72 167 43z m-202 -179 c117 -64 53 -246 -86 -246 -37
0 -50 6 -78 34 -30 30 -34 41 -34 84 0 35 6 57 22 77 46 59 122 81 176 51z
m-288 -51 c-11 -44 -4 -141 12 -173 17 -32 17 -32 -12 -47 -16 -8 -48 -15 -71
-15 -33 0 -47 6 -75 34 -29 29 -34 41 -34 80 0 91 56 149 140 144 39 -3 44 -5
40 -23z m-13028 -626 c415 -278 514 -370 617 -578 87 -172 127 -311 165 -571
14 -91 54 -320 91 -509 36 -189 64 -345 62 -347 -5 -6 -307 169 -403 234 -236
158 -506 400 -622 557 -70 94 -128 208 -149 291 -26 105 -23 395 6 584 34 225
82 432 97 426 7 -3 68 -42 136 -87z m12669 -196 c13 -16 12 -17 -3 -4 -17 13
-22 21 -14 21 2 0 10 -8 17 -17z m1216 -1018 c14 -9 31 -33 40 -52 21 -52 9
-99 -36 -144 -45 -45 -92 -57 -144 -36 -58 25 -70 53 -57 129 7 34 19 71 28
82 41 46 116 55 169 21z m-620 -70 c34 -23 56 -80 48 -124 -9 -47 -70 -107
-118 -116 -79 -15 -157 62 -143 140 8 42 49 93 91 111 35 17 87 12 122 -11z
m1074 -372 c-25 -207 -75 -384 -145 -505 -23 -40 -107 -154 -186 -254 -80 -99
-253 -318 -385 -486 -132 -169 -241 -305 -242 -304 -7 7 204 533 243 605 70
131 212 341 413 611 101 135 210 288 244 342 34 53 64 94 66 93 2 -2 -2 -48
-8 -102z m-1014 60 c-3 -3 -11 -2 -17 2 -9 6 -9 10 1 16 14 8 27 -7 16 -18z
m479 -107 c29 -29 34 -41 34 -82 0 -88 -55 -144 -141 -144 l-42 0 6 121 c4 66
9 125 13 130 3 5 26 9 51 9 38 0 50 -5 79 -34z m-492 8 c18 -7 20 -52 10 -166
-6 -63 -8 -68 -37 -78 -116 -40 -209 71 -152 181 29 55 118 86 179 63z m-1109
-2281 l18 -248 -37 -393 c-21 -217 -36 -398 -34 -403 2 -5 115 171 252 391
l248 400 28 -44 c20 -31 43 -51 79 -68 l52 -24 -62 -95 c-56 -85 -402 -631
-458 -722 l-23 -37 24 9 c12 5 137 57 277 116 l255 107 408 92 c224 51 408 89
408 86 0 -8 -94 -98 -170 -162 -98 -83 -276 -194 -434 -273 l-154 -76 -416
-77 -416 -77 -536 -445 c-295 -244 -544 -450 -553 -458 -27 -22 60 23 389 201
589 319 690 358 1080 427 318 55 571 130 840 247 165 71 161 70 115 29 -283
-258 -631 -481 -965 -620 -36 -14 -350 -101 -699 -191 l-634 -165 -194 -131
c-147 -99 -207 -134 -251 -145 -71 -19 -121 -52 -152 -104 -21 -33 -145 -121
-711 -504 -628 -425 -690 -465 -745 -475 -88 -18 -83 -14 -73 -63 6 -23 11
-43 12 -44 1 -2 65 8 142 21 348 58 586 73 1311 85 325 5 615 12 645 15 l54 6
-55 -35 c-216 -140 -509 -246 -810 -291 -194 -30 -581 -32 -980 -5 -363 24
-543 23 -669 -4 -227 -49 -452 -167 -701 -366 -213 -171 -564 -541 -845 -892
l-100 -125 -155 -6 c-166 -7 -280 -22 -467 -62 -64 -13 -118 -23 -120 -22 -1
2 163 136 364 298 714 572 1131 867 1498 1060 l110 58 335 415 335 415 135 83
c295 183 591 423 834 679 81 85 355 313 365 303 10 -9 -174 -359 -246 -469
-205 -311 -510 -625 -838 -865 -55 -40 -104 -76 -108 -80 -9 -8 33 -80 46 -80
5 0 163 114 350 254 188 139 511 378 717 530 611 451 592 436 687 561 46 61
98 128 117 150 38 46 126 225 163 330 47 139 67 366 44 508 -6 37 -2 80 20
185 124 613 294 1052 490 1272 l31 35 -5 -35 c-3 -19 -12 -75 -21 -125 -30
-174 -38 -335 -41 -815 -4 -529 -6 -552 -41 -719 -13 -63 -22 -116 -21 -117 2
-2 286 343 331 403 19 25 19 30 -25 444 l-43 419 28 87 c75 234 209 539 303
688 l37 59 7 -31 c3 -18 14 -144 24 -280z m531 201 c30 -73 29 -87 -17 -164
-38 -65 -44 -71 -68 -65 -66 16 -108 78 -96 141 11 62 82 123 143 124 17 0 27
-9 38 -36z m621 -168 c101 -110 -56 -283 -182 -200 -49 32 -60 119 -22 174 53
78 146 90 204 26z m-406 -87 c43 -30 57 -86 35 -144 -44 -114 -197 -126 -242
-19 -22 52 -9 101 38 147 34 33 45 37 89 37 35 0 60 -6 80 -21z m-412 -105
c17 -14 31 -30 31 -35 0 -5 -26 -51 -57 -103 -46 -76 -63 -96 -81 -96 -69 -1
-122 77 -102 148 27 99 139 145 209 86z m-151 -330 c3 -2 -71 -126 -95 -159
-15 -21 -15 4 3 156 l6 46 41 -21 c23 -11 43 -22 45 -22z m590 -47 c56 -27 71
-133 26 -187 -38 -44 -80 -63 -127 -57 -70 10 -120 82 -103 150 3 13 20 40 38
61 45 52 104 63 166 33z m-1222 -425 c41 -398 42 -373 -21 -447 l-35 -40 1
450 c0 253 4 439 9 425 4 -14 25 -188 46 -388z m-10638 -523 c289 -20 546 -71
678 -133 40 -19 101 -56 135 -83 124 -96 385 -261 713 -449 l139 -79 -64 -2
c-103 -4 -246 -22 -364 -46 -97 -19 -142 -22 -375 -21 -277 0 -430 11 -640 45
-221 37 -326 82 -512 222 -247 186 -576 519 -537 543 28 17 142 22 404 18 154
-3 344 -9 423 -15z m9722 -544 c67 -35 78 -102 31 -177 -36 -56 -56 -68 -113
-68 -50 0 -82 19 -103 60 -58 113 72 243 185 185z m-372 -411 c32 -21 55 -79
47 -120 -11 -62 -82 -124 -142 -124 -41 0 -92 35 -109 76 -20 47 -9 97 28 140
47 54 119 65 176 28z m748 -140 c83 -39 86 -166 6 -222 -63 -45 -134 -35 -181
24 -40 51 -22 141 36 182 49 34 90 39 139 16z m-990 -138 c20 -19 45 -38 56
-42 15 -4 -28 -41 -204 -171 -123 -91 -230 -171 -238 -177 -19 -14 -9 1 88
128 65 85 157 224 216 328 l19 33 13 -32 c7 -17 30 -47 50 -67z m518 -138 c83
-37 79 -173 -6 -226 -81 -50 -183 -6 -195 83 l-5 41 83 56 c46 31 87 57 91 57
4 1 18 -4 32 -11z m-284 -204 c7 -20 25 -51 41 -69 l30 -33 -58 -12 c-92 -18
-235 -58 -338 -94 -52 -18 -93 -30 -90 -27 11 11 390 269 397 270 3 1 12 -15
18 -35z m1092 -124 c-61 -37 -328 -168 -426 -209 -135 -56 -293 -106 -416
-130 -270 -54 -553 -107 -1000 -186 -267 -47 -494 -88 -505 -91 -36 -9 35 27
335 169 487 230 666 299 900 351 129 28 219 38 535 62 121 8 290 24 375 34 85
9 173 18 195 19 l40 1 -33 -20z m-5957 -173 c131 -75 380 -192 527 -246 215
-80 436 -137 688 -176 142 -23 559 -31 727 -16 326 31 677 121 987 254 69 30
122 49 118 42 -4 -7 -117 -150 -252 -318 -178 -222 -255 -310 -280 -322 -156
-74 -488 -282 -752 -471 -103 -74 -192 -134 -198 -134 -17 0 -362 160 -500
232 -178 92 -412 232 -529 315 -148 107 -196 160 -276 308 -87 160 -229 390
-319 514 -43 60 -59 89 -44 79 12 -8 59 -36 103 -61z m2285 -1771 c714 -263
986 -372 1022 -408 37 -37 16 -103 -42 -133 -53 -28 -104 -19 -284 51 -906
348 -1162 448 -1170 455 -8 7 119 159 133 159 3 0 157 -56 341 -124z"/>
<path d="M10173 16210 c-1013 -99 -1921 -687 -2637 -1710 -478 -681 -849
-1587 -1035 -2525 -102 -512 -148 -942 -158 -1490 -34 -1807 508 -3514 1486
-4685 132 -158 400 -425 555 -554 813 -671 1749 -918 2676 -706 1459 332 2687
1802 3189 3815 364 1458 311 3093 -145 4480 -264 805 -613 1454 -1092 2035
-135 163 -453 477 -612 604 -502 400 -1014 632 -1585 716 -160 24 -495 34
-642 20z m248 -315 c64 -22 114 -67 146 -133 24 -49 28 -71 31 -163 5 -126
-12 -196 -61 -261 -58 -76 -99 -91 -267 -99 -80 -4 -146 -6 -146 -5 -1 0 -5
153 -9 339 l-7 337 134 0 c94 0 148 -5 179 -15z m628 -51 c62 -20 102 -54 136
-115 68 -126 29 -360 -81 -473 -54 -56 -105 -78 -184 -78 -195 0 -300 152
-261 378 42 242 191 352 390 288z m-1461 -359 c46 -143 86 -262 89 -265 2 -2
67 16 143 42 l139 46 17 -50 c9 -27 14 -51 13 -52 -2 -2 -92 -31 -199 -65
-107 -34 -214 -71 -237 -83 l-43 -23 -64 64 -64 63 -87 -48 c-48 -27 -90 -55
-92 -62 -3 -7 2 -41 11 -77 22 -87 21 -90 -21 -116 -21 -13 -55 -36 -76 -53
l-37 -29 -132 56 -132 57 -53 -41 c-29 -23 -53 -44 -53 -47 0 -3 36 -49 79
-103 l80 -97 -39 -31 c-21 -17 -43 -31 -48 -31 -8 0 -422 504 -422 513 0 9
236 195 267 211 40 20 115 21 152 1 46 -23 107 -100 121 -152 12 -40 11 -53
-3 -92 -9 -25 -15 -46 -14 -46 44 -24 229 -96 234 -92 3 4 -24 143 -60 310
-37 166 -67 308 -67 313 0 6 26 25 57 42 l57 30 239 -235 c131 -129 240 -233
242 -231 2 2 -40 140 -94 306 l-98 301 41 15 c22 8 48 14 56 13 9 -1 42 -88
98 -262z m2182 72 c125 -71 154 -96 176 -153 27 -72 -1 -162 -72 -223 -43 -38
-73 -51 -120 -51 l-34 0 0 -155 c0 -85 -3 -155 -6 -155 -3 0 -28 12 -55 27
l-49 28 6 145 6 145 -61 34 c-34 18 -64 31 -65 30 -1 -2 -27 -47 -56 -99 -73
-130 -66 -124 -109 -98 -20 11 -40 25 -45 29 -5 4 65 138 155 298 l163 289 31
-15 c16 -9 77 -43 135 -76z m421 -254 c21 -16 39 -31 39 -36 0 -6 -78 -113
-337 -465 l-54 -72 -30 17 c-72 42 -79 25 136 317 108 146 199 266 202 266 3
0 22 -12 44 -27z m229 -214 c68 -31 107 -65 140 -122 25 -44 30 -63 30 -123 0
-95 -38 -174 -129 -265 -85 -84 -158 -120 -247 -121 -81 0 -138 27 -197 92
-78 86 -87 195 -28 307 103 193 292 295 431 232z m-1730 -125 c705 -109 1363
-640 1845 -1489 996 -1751 1006 -4457 25 -6222 -477 -857 -1100 -1381 -1810
-1525 -101 -20 -143 -23 -340 -23 -205 1 -236 3 -350 28 -274 58 -485 148
-735 313 -159 104 -261 190 -420 349 -1476 1475 -1815 4687 -725 6866 300 598
698 1079 1139 1374 433 289 903 402 1371 329z m-2383 -26 c18 -18 33 -36 33
-40 0 -4 -47 -59 -104 -121 l-105 -112 27 -28 c15 -16 44 -42 64 -58 l37 -30
69 73 c38 40 83 89 100 108 l31 35 35 -34 c20 -19 36 -38 36 -41 0 -3 -43 -52
-95 -108 -52 -56 -95 -104 -95 -107 0 -3 28 -32 63 -65 l62 -60 117 123 117
122 37 -37 37 -36 -147 -159 c-81 -87 -151 -159 -154 -161 -9 -3 -487 440
-487 452 0 8 275 313 285 315 2 1 19 -13 37 -31z m4632 -422 c86 -45 161 -161
161 -250 0 -50 -32 -136 -51 -136 -5 0 -27 11 -48 24 l-39 25 15 44 c20 62 5
114 -47 161 -35 32 -46 36 -93 36 -70 0 -145 -37 -219 -110 -91 -89 -101 -173
-31 -251 66 -73 113 -85 168 -43 l34 26 -41 54 c-22 30 -39 56 -37 58 2 1 20
15 41 30 l36 27 72 -96 c39 -54 70 -98 68 -99 -2 -1 -47 -34 -100 -74 l-98
-72 -47 10 c-64 15 -120 49 -172 105 -58 63 -81 116 -81 191 0 79 32 144 108
216 136 129 295 178 401 124z m-4834 -86 c79 -38 173 -124 209 -190 38 -70 45
-151 19 -211 -19 -42 -153 -238 -163 -239 -3 0 -120 84 -260 186 -140 102
-262 189 -270 194 -27 16 138 233 204 267 81 42 167 40 261 -7z m5181 -382
c20 -35 59 -106 87 -158 44 -84 49 -100 44 -143 -6 -62 -45 -113 -117 -149
-64 -34 -125 -36 -179 -8 l-38 19 -72 -116 c-40 -63 -71 -116 -69 -117 2 -1
138 17 303 40 165 24 312 43 326 43 21 1 30 -8 54 -59 16 -33 27 -61 24 -63
-2 -2 -120 -103 -262 -226 -142 -122 -261 -220 -266 -217 -4 3 -16 24 -26 47
l-19 41 30 27 c16 14 47 40 68 58 l39 32 -44 96 -44 97 -40 -5 c-22 -3 -62 -9
-90 -12 l-50 -6 -43 89 -44 90 77 121 76 121 -32 58 c-18 31 -34 59 -35 61 -2
2 -50 -24 -108 -58 -57 -33 -109 -61 -114 -61 -11 0 -59 87 -52 93 10 10 565
327 572 327 4 0 24 -28 44 -62z m-5678 27 c59 -32 60 -24 -22 -165 -42 -72
-76 -135 -76 -140 0 -4 32 -27 72 -50 55 -31 73 -38 80 -28 4 7 36 61 69 120
33 60 65 110 70 113 8 5 42 -10 78 -34 11 -7 -1 -34 -59 -136 -58 -101 -70
-129 -59 -136 28 -18 137 -79 142 -79 3 0 42 65 87 145 l82 144 41 -26 c23
-14 43 -27 45 -29 4 -3 -196 -354 -213 -372 -9 -10 -66 19 -291 148 -153 89
-283 165 -287 169 -9 9 195 371 209 371 3 0 17 -7 32 -15z m-233 -442 c19 -9
35 -22 35 -28 0 -7 -25 -65 -55 -129 -30 -64 -55 -120 -55 -124 0 -14 180 -96
189 -86 5 5 32 61 61 124 29 63 54 117 56 118 3 5 94 -36 94 -42 0 -2 -25 -57
-55 -121 -30 -65 -55 -123 -55 -129 1 -6 45 -31 98 -56 53 -24 101 -47 106
-51 10 -9 -25 -99 -39 -99 -5 0 -97 41 -205 92 -107 50 -241 113 -297 139
l-102 48 46 98 c25 54 63 135 84 181 21 45 43 82 48 82 6 0 26 -8 46 -17z
m6407 -603 l19 -55 -208 -204 c-114 -112 -199 -200 -188 -196 145 54 461 165
470 165 13 0 40 -78 30 -88 -13 -14 -620 -221 -626 -214 -3 4 -15 31 -25 61
l-19 53 202 199 c112 109 200 199 197 199 -2 0 -21 -7 -42 -16 -42 -18 -426
-154 -434 -154 -7 0 -32 89 -27 94 13 10 607 215 618 213 8 -1 23 -27 33 -57z
m-6670 -11 l36 -12 -49 -144 c-27 -79 -49 -147 -49 -152 0 -10 149 -66 156
-59 2 3 25 63 50 134 25 71 47 130 49 133 8 7 95 -22 95 -32 0 -5 -20 -68 -45
-140 -25 -71 -44 -131 -42 -133 1 -2 39 -16 84 -33 l81 -30 12 32 c6 18 29 84
51 147 22 63 41 120 44 127 3 9 16 8 52 -4 26 -9 49 -17 50 -18 4 -3 -138
-409 -145 -416 -7 -6 -616 201 -628 214 -3 3 22 86 56 184 83 236 78 225 93
219 6 -2 28 -10 49 -17z m6860 -570 c23 -83 28 -120 26 -186 -3 -72 -7 -86
-33 -125 -63 -90 -204 -152 -345 -152 -41 0 -92 6 -114 13 -45 16 -111 72
-134 115 -15 29 -83 268 -78 273 5 6 632 170 640 169 5 -1 22 -49 38 -107z
m-6765 27 c165 -44 264 -144 265 -269 1 -51 -47 -262 -63 -281 -5 -6 -630 148
-647 160 -5 3 60 238 74 265 47 93 129 139 244 139 41 0 99 -7 127 -14z m6877
-483 c3 -10 19 -94 36 -188 17 -93 34 -180 37 -192 4 -18 -1 -22 -44 -31 -26
-6 -50 -8 -53 -6 -3 3 -17 71 -32 151 -15 80 -30 148 -32 151 -8 7 -156 -19
-162 -29 -3 -5 7 -70 21 -145 14 -75 25 -138 23 -139 -2 -1 -24 -7 -50 -13
-56 -11 -49 -24 -79 143 -12 66 -25 124 -29 128 -7 9 -140 -11 -161 -24 -10
-6 -7 -39 17 -168 l30 -160 -49 -11 c-28 -6 -51 -9 -53 -8 -6 6 -83 432 -79
437 6 5 602 119 632 120 12 1 24 -6 27 -16z m-6688 -145 l-11 -53 -85 -8 c-46
-4 -87 -12 -91 -18 -3 -6 -12 -43 -18 -82 -7 -40 -14 -82 -17 -94 -5 -19 4
-27 75 -63 l82 -41 -6 -37 c-14 -80 11 -87 -323 84 -169 86 -308 157 -310 159
-6 5 9 111 17 124 7 10 556 77 662 80 l37 1 -12 -52z m-362 -433 c108 -23 187
-78 228 -160 19 -36 20 -51 14 -160 -3 -66 -9 -137 -12 -158 -6 -34 -9 -38
-33 -33 -14 3 -163 20 -331 37 -168 18 -306 33 -307 34 -6 4 28 255 37 281 54
144 202 202 404 159z m7175 -208 c14 -139 10 -182 -27 -250 -29 -55 -74 -91
-146 -120 -41 -17 -74 -21 -171 -22 -111 0 -124 2 -171 27 -63 33 -120 95
-133 145 -11 42 -36 272 -30 277 4 3 589 62 645 65 20 1 22 -7 33 -122z
m-6954 -359 c4 -4 4 -30 0 -58 l-7 -52 -42 6 c-22 3 -171 13 -331 22 -159 9
-291 18 -293 20 -2 1 -1 26 3 56 l7 53 328 -20 c181 -11 331 -23 335 -27z
m6853 -97 c62 -28 123 -93 140 -149 7 -22 12 -68 12 -104 0 -166 -131 -268
-345 -268 -151 0 -254 49 -312 148 -24 41 -28 58 -28 127 0 95 21 143 87 199
66 57 140 76 278 73 95 -2 124 -7 168 -26z m-6940 -64 c60 -39 77 -84 77 -202
0 -88 -3 -105 -25 -143 -25 -45 -67 -77 -120 -92 -35 -10 -36 -9 -45 52 -7 47
-7 47 29 62 48 20 70 70 64 143 -6 68 -36 103 -88 103 -52 0 -74 -29 -114
-150 -40 -120 -74 -162 -143 -180 -92 -23 -178 11 -217 85 -17 32 -21 58 -21
130 1 100 13 135 64 178 30 25 87 44 98 33 3 -3 8 -28 11 -55 4 -43 2 -50 -17
-56 -38 -12 -61 -53 -61 -109 0 -59 18 -91 56 -100 62 -16 95 20 129 139 44
153 95 198 217 191 52 -2 77 -9 106 -29z m72 -487 l0 -60 -126 -72 -126 -73 6
-69 c4 -39 8 -70 9 -71 1 0 57 2 124 5 137 6 133 7 133 -64 l0 -43 -332 -14
c-183 -8 -335 -13 -338 -11 -3 2 -6 83 -8 180 -3 169 -2 179 20 217 63 110
277 115 340 8 l20 -33 57 32 c31 18 92 54 136 80 44 26 81 48 83 48 1 0 2 -27
2 -60z m6688 -192 l322 -22 0 -42 c0 -85 7 -80 -279 -189 l-261 -100 58 -6
c31 -4 147 -12 258 -19 l201 -13 -5 -46 c-2 -25 -6 -48 -8 -49 -1 -2 -152 6
-334 19 l-332 23 5 64 c2 35 7 65 10 68 3 3 120 49 261 103 141 54 258 100
260 102 3 3 -18 5 -47 5 -29 0 -146 6 -260 14 -171 11 -207 16 -202 27 3 8 5
30 5 49 0 20 5 34 13 34 6 0 157 -9 335 -22z m-6664 -310 c15 -86 46 -402 40
-407 -5 -5 -656 -82 -661 -77 0 0 -11 95 -24 209 -25 232 -26 227 42 227 42 0
39 10 60 -194 l12 -118 81 7 c45 3 84 10 87 13 4 4 1 57 -7 117 -21 177 -22
172 32 180 25 3 48 5 50 3 3 -4 34 -249 34 -277 0 -10 16 -12 83 -6 45 4 86
11 91 15 4 5 1 70 -8 149 -21 181 -21 179 7 184 63 12 76 8 81 -25z m6657
-212 c172 -37 263 -130 263 -271 0 -126 -65 -223 -172 -259 -91 -31 -261 -17
-354 30 -109 55 -158 128 -158 233 0 83 16 132 58 181 75 89 205 119 363 86z
m-6913 -356 c185 -22 337 -41 338 -43 1 -1 5 -28 9 -59 l7 -57 -310 -155
c-171 -86 -313 -152 -315 -148 -3 4 -8 30 -11 57 l-7 50 262 120 262 120 -54
3 c-163 8 -512 41 -519 48 -15 16 -24 104 -10 104 6 0 163 -18 348 -40z m6787
-235 c171 -37 313 -70 317 -74 3 -3 -9 -76 -28 -161 -39 -175 -61 -218 -126
-251 -103 -53 -267 16 -292 123 -5 24 -9 26 -34 18 -163 -46 -264 -72 -268
-67 -9 9 7 86 20 100 7 7 69 28 137 46 68 18 128 37 132 41 10 9 37 122 32
131 -2 3 -55 16 -117 29 -62 13 -116 26 -121 30 -11 10 15 111 27 107 6 -2
151 -35 321 -72z m-6377 -175 c6 -25 8 -48 4 -51 -4 -3 -142 -36 -307 -73
-165 -36 -310 -69 -321 -72 -20 -5 -23 0 -33 47 -6 28 -9 54 -6 57 9 9 640
149 646 143 3 -3 11 -26 17 -51z m35 -160 c10 -33 17 -62 17 -64 0 -2 -89 -80
-197 -172 -109 -92 -207 -175 -218 -186 -20 -19 -20 -19 10 -8 37 14 451 130
463 130 12 0 34 -83 24 -91 -6 -5 -624 -179 -636 -179 -2 0 -11 27 -20 60 -17
59 -17 61 3 78 144 120 418 358 416 360 -1 1 -15 -2 -31 -8 -35 -14 -449 -130
-462 -130 -11 0 -36 80 -27 88 6 7 608 179 631 181 6 1 18 -26 27 -59z m6528
-234 l26 -11 -65 -220 c-36 -121 -67 -222 -68 -223 -2 -3 -18 1 -91 23 -8 3
-5 27 13 85 14 45 23 85 19 88 -3 3 -123 41 -266 83 -143 42 -262 79 -265 81
-9 10 27 107 39 103 31 -10 525 -155 530 -155 2 0 14 38 27 85 25 93 26 93
101 61z m-6431 -281 c107 -55 163 -220 110 -324 -39 -77 -67 -93 -346 -194
-98 -36 -186 -68 -194 -71 -12 -5 -20 6 -34 44 -10 28 -16 53 -14 56 3 2 93
36 199 75 107 39 211 80 232 92 67 37 86 110 47 175 -45 74 -101 70 -357 -23
-113 -41 -209 -73 -213 -70 -13 8 -39 94 -30 100 15 9 394 146 430 155 48 13
131 5 170 -15z m6085 -135 c121 -45 221 -83 222 -84 2 -2 -146 -398 -150 -403
-3 -2 -84 26 -95 33 -1 1 22 68 52 150 30 82 54 149 53 151 -10 9 -158 60
-161 55 -2 -4 -25 -65 -51 -137 -27 -71 -49 -131 -50 -133 -4 -5 -95 33 -95
39 0 4 22 67 49 141 l48 133 -81 31 c-44 17 -83 30 -86 28 -3 -1 -30 -70 -60
-153 -38 -103 -60 -151 -70 -151 -8 0 -31 8 -51 18 l-36 17 68 185 c38 102 73
195 79 207 l9 23 93 -34 c51 -19 192 -71 313 -116z m-5915 -797 c72 -49 84
-137 30 -206 -62 -79 -201 -46 -231 53 -16 53 10 123 55 151 39 24 113 25 146
2z m5408 -3 c59 -36 78 -118 42 -177 -39 -64 -111 -88 -175 -57 -50 23 -75 66
-75 128 0 43 4 53 39 87 34 35 44 39 87 39 31 0 61 -7 82 -20z m-458 -286 c22
-15 40 -29 40 -31 0 -2 -18 -31 -40 -63 -22 -33 -43 -66 -46 -74 -4 -10 60
-59 223 -167 125 -83 230 -153 232 -155 5 -5 -14 -41 -38 -73 l-19 -24 -223
150 c-123 82 -229 153 -236 157 -8 4 -29 -18 -59 -64 -26 -38 -51 -70 -56 -70
-12 0 -78 44 -78 53 0 8 251 387 257 387 2 0 21 -12 43 -26z m-4254 -229 c32
-48 35 -57 23 -72 -35 -44 -441 -513 -444 -513 -2 0 -16 20 -31 45 l-26 45 48
56 c27 31 53 62 58 69 7 10 -6 38 -47 99 -31 47 -60 86 -65 86 -4 0 -43 -11
-86 -25 -44 -14 -80 -24 -81 -22 0 1 -13 22 -29 45 -15 24 -26 45 -24 47 4 4
640 193 655 194 7 1 29 -24 49 -54z m4004 -242 c0 -2 -48 -57 -106 -121 l-105
-117 63 -58 63 -58 50 53 c28 29 72 77 98 106 26 28 51 52 55 52 4 0 22 -14
40 -31 39 -35 46 -21 -78 -158 l-85 -94 65 -58 c36 -32 68 -59 71 -59 3 0 54
54 113 120 59 66 111 120 115 120 4 0 22 -16 40 -34 l34 -35 -119 -132 c-65
-73 -132 -147 -149 -166 l-30 -33 -245 220 c-135 122 -246 224 -248 229 -1 4
61 78 139 164 l141 157 39 -31 c21 -17 39 -33 39 -36z m-3793 -22 c47 -24 119
-100 139 -146 8 -19 14 -57 14 -84 0 -52 -25 -131 -41 -131 -6 0 -28 9 -50 21
-31 16 -39 24 -33 37 15 35 16 100 1 128 -27 52 -62 76 -116 82 -67 6 -128
-24 -207 -102 -101 -101 -118 -187 -53 -261 37 -42 90 -59 139 -45 53 15 57
13 74 -37 9 -26 16 -48 16 -49 0 -9 -92 -26 -136 -26 -92 1 -177 62 -222 161
-31 68 -27 142 13 222 50 99 201 225 299 250 46 12 119 3 163 -20z m3478 -360
c108 -51 216 -194 234 -312 10 -62 -2 -130 -30 -176 -17 -28 -106 -105 -225
-195 -7 -5 -81 81 -215 253 -112 144 -204 264 -204 268 0 14 203 162 240 175
66 24 132 20 200 -13z m-3118 -10 c48 -22 129 -93 147 -130 22 -43 27 -95 15
-150 -11 -54 -15 -56 -69 -37 -34 12 -35 14 -35 69 0 130 -130 196 -238 121
-94 -66 -178 -220 -162 -295 10 -45 60 -97 105 -109 37 -10 62 -5 131 24 13 5
23 -4 42 -39 l26 -45 -51 -26 c-105 -53 -216 -29 -301 66 -80 88 -86 187 -22
317 45 91 142 193 216 228 66 30 137 32 196 6z m319 -217 c24 -14 44 -28 44
-30 0 -5 -320 -566 -327 -574 -6 -7 -93 42 -93 53 0 10 322 577 328 577 2 0
23 -12 48 -26z m2254 -81 c24 -54 27 -50 -72 -89 -38 -15 -68 -31 -68 -35 0
-4 45 -115 101 -246 56 -131 103 -246 106 -256 4 -13 -6 -22 -42 -38 -26 -11
-50 -17 -55 -12 -4 4 -47 103 -95 218 -48 116 -96 229 -106 252 l-18 43 -82
-35 c-45 -20 -83 -34 -83 -33 -15 25 -38 90 -33 94 4 4 414 182 424 184 1 0
11 -21 23 -47z m-1879 -94 c16 -11 39 -39 50 -62 55 -107 -25 -283 -144 -316
-52 -15 -82 -10 -180 30 -39 16 -74 26 -78 22 -4 -5 -26 -54 -49 -110 l-42
-101 -49 20 c-27 11 -49 24 -49 28 0 6 125 315 221 547 l30 71 130 -53 c72
-30 143 -64 160 -76z m215 -60 c24 -6 44 -17 44 -24 0 -18 -158 -626 -164
-632 -3 -3 -28 0 -56 7 -40 9 -51 16 -48 29 102 397 165 631 171 631 5 0 28
-5 53 -11z m1217 -195 c44 -228 50 -331 23 -384 -44 -85 -106 -121 -218 -128
-70 -4 -81 -2 -122 22 -47 27 -90 87 -106 148 -5 18 -25 119 -45 223 -19 105
-37 200 -40 212 -4 19 1 23 46 32 29 6 54 9 57 7 2 -3 24 -107 48 -231 23
-125 50 -237 58 -251 52 -78 172 -74 213 7 20 39 14 112 -26 324 l-38 200 46
11 c25 7 50 11 55 10 5 -1 27 -92 49 -202z m-903 141 c113 -14 211 -25 218
-25 13 0 17 -77 4 -96 -5 -8 -31 -8 -90 -1 -45 5 -84 8 -86 6 -2 -2 -18 -128
-36 -279 -18 -151 -33 -276 -34 -277 -1 -1 -26 0 -54 4 -44 5 -52 9 -52 27 0
12 13 131 30 266 16 135 30 253 30 262 0 13 -14 18 -67 23 -99 10 -103 11
-103 50 0 41 9 65 24 65 6 0 103 -11 216 -25z"/>
<path d="M10237 15804 c-17 -5 -18 -19 -12 -222 4 -120 8 -223 10 -229 3 -8
22 -13 47 -13 148 0 216 86 206 258 -5 92 -34 155 -86 185 -32 19 -130 31
-165 21z"/>
<path d="M10915 15753 c-94 -23 -177 -216 -145 -341 16 -66 35 -91 87 -114 84
-37 157 -4 203 94 42 89 56 183 36 251 -17 59 -34 79 -89 102 -37 15 -55 17
-92 8z"/>
<path d="M9100 15442 c0 -12 60 -275 64 -279 6 -7 136 70 136 80 0 7 -45 57
-100 112 -55 55 -100 94 -100 87z"/>
<path d="M8657 15155 c-16 -8 -55 -37 -88 -64 l-59 -49 62 -76 c34 -42 64 -76
68 -76 12 0 139 110 150 131 19 34 3 84 -36 118 -39 35 -56 38 -97 16z"/>
<path d="M11643 15488 c-6 -7 -28 -47 -51 -88 l-41 -75 73 -42 c92 -53 116
-59 154 -39 30 16 62 69 62 104 0 32 -36 68 -111 111 -81 47 -74 45 -86 29z"/>
<path d="M12272 14983 c-52 -18 -137 -99 -177 -167 -37 -63 -41 -140 -9 -183
72 -96 186 -84 299 32 67 68 90 115 90 187 0 49 -4 61 -30 89 -32 33 -82 60
-112 58 -10 0 -37 -7 -61 -16z"/>
<path d="M10325 14070 c-100 -219 -133 -282 -149 -285 -12 -3 -136 -23 -276
-45 -140 -22 -269 -42 -287 -45 -32 -6 -30 -7 190 -213 122 -113 223 -213 225
-222 1 -8 -15 -135 -36 -282 -21 -148 -37 -268 -35 -268 3 0 114 61 247 135
134 74 247 135 253 135 6 0 119 -61 253 -136 133 -74 244 -134 245 -132 2 2
-14 127 -36 278 l-39 274 21 22 c12 13 113 107 225 211 111 103 201 189 200
191 -2 1 -139 24 -304 50 -166 27 -303 50 -305 53 -2 2 -59 126 -127 274 -67
149 -126 274 -130 278 -4 4 -65 -118 -135 -273z"/>
<path d="M10793 12433 c-46 -25 -83 -51 -83 -58 0 -16 1489 -4107 1498 -4117
10 -10 457 266 454 280 -3 18 -1773 3926 -1781 3933 -3 3 -43 -14 -88 -38z"/>
<path d="M9947 12413 c-8 -16 -420 -896 -917 -1956 -761 -1626 -901 -1930
-889 -1941 28 -26 439 -269 445 -263 5 5 1494 4116 1494 4124 0 2 -27 16 -60
33 l-59 30 -14 -27z"/>
<path d="M9766 11001 c-203 -754 -369 -1377 -370 -1386 -1 -13 55 -37 244
-105 135 -49 248 -86 251 -82 3 4 81 653 173 1442 91 789 169 1444 171 1456 4
17 -2 23 -34 32 -21 7 -45 12 -53 12 -11 0 -108 -348 -382 -1369z"/>
<path d="M10593 12347 c-29 -7 -43 -15 -43 -26 0 -32 350 -2894 354 -2898 8
-9 496 172 496 183 0 9 -718 2681 -736 2737 -6 19 -10 19 -71 4z"/>
<path d="M10343 12343 l-52 -4 -5 -52 c-3 -29 -35 -639 -71 -1357 -36 -718
-68 -1347 -71 -1397 l-7 -93 256 0 c141 0 258 3 260 8 3 4 -36 657 -87 1452
l-91 1445 -40 1 c-22 0 -63 -1 -92 -3z"/>
<path d="M10030 8913 c-14 -2 -110 -15 -213 -29 l-188 -26 -71 -74 -71 -74
-97 0 -97 0 -288 -852 c-159 -469 -290 -858 -292 -863 -2 -7 266 11 712 46
l716 57 57 -34 c159 -96 350 -98 499 -7 l49 30 699 -53 c385 -29 701 -52 703
-49 3 3 -331 1674 -344 1718 -5 15 -19 17 -104 17 l-99 0 -56 69 c-64 79 -31
69 -318 97 -108 10 -218 15 -310 11 -177 -5 -242 -25 -321 -98 l-53 -48 -42
43 c-80 82 -213 127 -366 124 -44 0 -91 -2 -105 -5z m266 -57 c70 -19 144 -60
189 -106 l38 -39 -42 -598 c-23 -329 -44 -619 -47 -645 l-6 -48 -31 47 c-39
58 -113 115 -185 142 -167 64 -460 67 -795 8 -55 -10 -77 -11 -74 -3 3 6 76
279 163 607 l158 596 175 26 c200 28 380 34 457 13z m987 -22 c89 -9 164 -18
166 -20 8 -7 134 -1184 128 -1190 -4 -4 -53 0 -109 10 -185 29 -311 39 -458
33 -236 -8 -384 -59 -479 -163 -28 -31 -51 -54 -51 -52 0 2 20 284 44 627 l45
624 29 36 c37 46 140 99 217 111 75 11 258 5 468 -16z m317 -184 l51 -59 104
-643 c57 -354 102 -644 101 -645 -1 -1 -51 64 -112 145 l-111 147 -57 520
c-32 286 -60 537 -63 558 -9 58 24 50 87 -23z m-2020 38 c0 -7 -65 -257 -145
-555 l-144 -543 -122 -141 c-66 -77 -123 -138 -125 -136 -3 2 86 294 197 648
l201 644 46 48 c45 45 92 63 92 35z m514 -1094 c190 -38 307 -151 323 -310 6
-56 6 -56 -18 -49 -54 17 -87 34 -122 64 l-36 32 -598 -54 c-329 -29 -600 -52
-602 -51 -4 4 268 317 283 325 18 10 284 50 396 59 126 10 280 3 374 -16z
m1251 11 c193 -25 243 -37 264 -59 31 -35 231 -299 228 -303 -2 -1 -263 18
-580 43 l-577 45 -45 -31 c-48 -33 -91 -53 -139 -64 l-28 -7 7 48 c27 181 138
283 355 328 89 18 378 18 515 0z"/>
<path d="M7884 14331 c-29 -18 -105 -105 -104 -120 1 -3 20 -19 43 -35 23 -16
106 -76 184 -132 l142 -104 36 47 c71 93 68 164 -11 251 -86 97 -216 138 -290
93z"/>
<path d="M13118 13914 c-43 -25 -78 -49 -78 -54 0 -18 83 -151 103 -165 27
-19 70 -19 107 0 64 33 66 88 8 190 -24 41 -47 75 -53 74 -5 0 -45 -20 -87
-45z"/>
<path d="M13365 13338 c-71 -11 -131 -22 -133 -23 -5 -4 60 -145 67 -145 3 0
57 43 119 95 64 54 106 95 95 94 -10 -1 -76 -10 -148 -21z"/>
<path d="M13629 12362 l-206 -55 14 -56 c21 -81 39 -108 83 -131 77 -39 234
-17 316 45 40 30 69 102 60 147 -16 82 -27 108 -44 107 -9 -1 -110 -26 -223
-57z"/>
<path d="M7005 12367 c-16 -8 -40 -26 -53 -39 -25 -27 -66 -148 -54 -159 4 -3
99 -30 212 -59 113 -29 210 -55 216 -57 8 -3 19 23 29 69 17 73 17 75 -3 121
-22 50 -83 97 -152 118 -60 18 -162 21 -195 6z"/>
<path d="M6900 11756 l-104 -11 131 -64 c72 -35 135 -64 139 -65 7 -1 32 105
33 142 1 14 -47 14 -199 -2z"/>
<path d="M6855 11311 c-89 -22 -128 -72 -140 -177 l-7 -60 208 -22 c115 -12
219 -22 230 -22 19 0 22 8 28 63 14 123 -45 189 -189 216 -65 12 -86 12 -130
2z"/>
<path d="M13855 11186 l-209 -21 3 -54 c3 -67 15 -98 48 -133 61 -64 213 -75
317 -23 69 34 89 65 94 142 5 78 -3 113 -26 112 -9 -1 -111 -11 -227 -23z"/>
<path d="M13802 10651 c-90 -31 -127 -82 -119 -164 3 -39 11 -56 38 -83 65
-64 228 -82 332 -36 143 64 136 234 -12 287 -59 20 -173 19 -239 -4z"/>
<path d="M6713 10076 c-27 -24 -28 -27 -27 -125 0 -55 3 -103 6 -107 4 -3 50
-3 102 1 l96 7 0 72 c0 98 -14 142 -50 161 -44 23 -94 19 -127 -9z"/>
<path d="M13727 9376 c-119 -33 -162 -154 -86 -241 56 -63 220 -102 318 -75
123 33 160 177 66 259 -61 53 -210 82 -298 57z"/>
<path d="M13780 8728 c-6 -29 -14 -78 -17 -109 -5 -48 -2 -60 15 -77 52 -52
147 -44 170 14 12 33 44 175 40 179 -3 2 -186 45 -193 45 -2 0 -9 -24 -15 -52z"/>
<path d="M8180 6495 c-80 -25 -134 -47 -132 -54 4 -18 74 -121 82 -121 4 0 36
33 71 72 35 40 79 90 98 110 18 21 29 37 25 37 -5 -1 -70 -20 -144 -44z"/>
<path d="M11929 5877 c-39 -18 -109 -71 -109 -82 0 -13 268 -355 279 -355 17
0 103 75 117 101 35 68 2 178 -78 265 -68 74 -146 100 -209 71z"/>
<path d="M9416 5465 c-19 -47 -36 -92 -38 -101 -2 -12 18 -24 75 -47 75 -29
79 -30 111 -15 59 29 90 135 51 178 -15 17 -132 70 -154 70 -5 0 -25 -38 -45
-85z"/>
</g>
</svg>
