<?xml version="1.0" encoding="UTF-8"?>
<!DOCTYPE svg PUBLIC "-//W3C//DTD SVG 1.1//EN" "http://www.w3.org/Graphics/SVG/1.1/DTD/svg11.dtd">
<svg xmlns="http://www.w3.org/2000/svg" version="1.1" width="995px" height="1280px" style="shape-rendering:geometricPrecision; text-rendering:geometricPrecision; image-rendering:optimizeQuality; fill-rule:evenodd; clip-rule:evenodd" xmlns:xlink="http://www.w3.org/1999/xlink">
<g><path style="opacity:1" fill="#0f0e0c" d="M 951.5,445.5 C 951.5,566.833 951.5,688.167 951.5,809.5C 951.667,870.168 951.5,930.834 951,991.5C 950.594,994.742 949.761,997.742 948.5,1000.5C 944.63,1007.38 939.963,1013.71 934.5,1019.5C 928.28,1024.61 921.28,1028.11 913.5,1030C 646.5,1030.67 379.5,1030.67 112.5,1030C 94.8569,1024.69 83.6902,1013.19 79,995.5C 78.3333,751.167 78.3333,506.833 79,262.5C 83.9307,243.903 95.7641,232.403 114.5,228C 382.195,227.005 649.862,227.338 917.5,229C 933.948,235.113 944.448,246.613 949,263.5C 949.501,324.336 950.335,385.002 951.5,445.5 Z"/></g>
<g><path style="opacity:0.769" fill="#020302" d="M 947.5,252.5 C 948.973,257.057 950.139,261.724 951,266.5C 951.5,326.166 951.667,385.832 951.5,445.5C 950.335,385.002 949.501,324.336 949,263.5C 944.448,246.613 933.948,235.113 917.5,229C 649.862,227.338 382.195,227.005 114.5,228C 95.7641,232.403 83.9307,243.903 79,262.5C 78.3333,506.833 78.3333,751.167 79,995.5C 83.6902,1013.19 94.8569,1024.69 112.5,1030C 379.5,1030.67 646.5,1030.67 913.5,1030C 921.28,1028.11 928.28,1024.61 934.5,1019.5C 939.963,1013.71 944.63,1007.38 948.5,1000.5C 947.302,1005.23 945.302,1009.56 942.5,1013.5C 941.221,1017.3 938.888,1020.47 935.5,1023C 932.402,1025.88 928.735,1027.72 924.5,1028.5C 920.265,1029.97 915.932,1031.13 911.5,1032C 646.167,1032.67 380.833,1032.67 115.5,1032C 112.089,1031.47 108.755,1030.64 105.5,1029.5C 104.584,1029.54 103.917,1029.88 103.5,1030.5C 87.1189,1022.8 77.7855,1009.8 75.5,991.5C 76.6655,921.335 76.8321,851.001 76,780.5C 75.8327,827.335 75.3327,874.002 74.5,920.5C 74.5,867.167 74.5,813.833 74.5,760.5C 75.3279,766.653 75.8279,772.987 76,779.5C 76.6667,629.167 76.6667,478.833 76,328.5C 75.8304,339.341 75.3304,350.008 74.5,360.5C 74.3334,329.498 74.5,298.498 75,267.5C 78.3848,246.136 90.2181,232.303 110.5,226C 379.5,225.333 648.5,225.333 917.5,226C 931.861,229.997 941.861,238.83 947.5,252.5 Z"/></g>
<g><path style="opacity:1" fill="#0b5a2f" d="M 143.5,320.5 C 266.999,319.5 390.666,319.167 514.5,319.5C 514.5,367.833 514.5,416.167 514.5,464.5C 513.501,416.67 513.168,368.67 513.5,320.5C 390.5,320.5 267.5,320.5 144.5,320.5C 144.167,320.5 143.833,320.5 143.5,320.5 Z"/></g>
<g><path style="opacity:1" fill="#03ee77" d="M 144.5,320.5 C 267.5,320.5 390.5,320.5 513.5,320.5C 513.168,368.67 513.501,416.67 514.5,464.5C 515.239,464.369 515.906,464.536 516.5,465C 552.701,501.368 589.035,537.535 625.5,573.5C 610.005,574.331 594.339,574.831 578.5,575C 577.956,575.717 577.289,576.217 576.5,576.5C 556.5,555.833 536.167,535.5 515.5,515.5C 515.217,514.711 514.717,514.044 514,513.5C 513.172,528.339 513.339,543.006 514.5,557.5C 541.833,585.5 569.5,613.167 597.5,640.5C 597.5,645.5 597.5,650.5 597.5,655.5C 591.158,655.334 584.825,655.5 578.5,656C 577.874,656.75 577.374,657.584 577,658.5C 576.501,662.486 576.334,666.486 576.5,670.5C 574.167,668.5 571.833,666.5 569.5,664.5C 569.667,652.162 569.5,639.829 569,627.5C 568.5,627 568,626.5 567.5,626C 557.483,625.168 547.483,625.334 537.5,626.5C 536.754,627.736 536.421,629.07 536.5,630.5C 529.5,623.833 522.5,617.167 515.5,610.5C 515.5,609.833 515.167,609.5 514.5,609.5C 514.667,598.162 514.5,586.828 514,575.5C 503,574.167 492,574.167 481,575.5C 480.333,611.167 480.333,646.833 481,682.5C 481.5,683 482,683.5 482.5,684C 504.164,684.5 525.831,684.667 547.5,684.5C 553.085,691.425 559.085,698.092 565.5,704.5C 550.145,720.187 534.812,735.854 519.5,751.5C 508.495,751.333 497.495,751.5 486.5,752C 485.667,752.833 484.833,753.667 484,754.5C 483.333,762.167 483.333,769.833 484,777.5C 484.589,779.863 486.089,780.863 488.5,780.5C 488.5,780.833 488.5,781.167 488.5,781.5C 485.105,785.898 481.105,789.564 476.5,792.5C 476.667,779.829 476.5,767.162 476,754.5C 473.847,751.876 471.013,750.876 467.5,751.5C 478.167,740.167 489.167,729.167 500.5,718.5C 502.912,718.306 503.912,716.973 503.5,714.5C 383.833,714.5 264.167,714.5 144.5,714.5C 144.5,583.167 144.5,451.833 144.5,320.5 Z"/></g>
<g><path style="opacity:1" fill="#f7f7f7" d="M 682.5,322.5 C 686.067,324.557 689.234,327.223 692,330.5C 692.667,331.167 692.667,331.833 692,332.5C 680.124,344.041 668.624,355.875 657.5,368C 668.291,379.792 679.458,391.292 691,402.5C 689.969,406.893 687.303,410.226 683,412.5C 667.694,398.361 652.86,383.694 638.5,368.5C 652.824,352.843 667.49,337.51 682.5,322.5 Z"/></g>
<g><path style="opacity:0.888" fill="#cfcfcf" d="M 753.5,328.5 C 752.167,328.5 750.833,328.5 749.5,328.5C 749.5,332.833 749.5,337.167 749.5,341.5C 745.854,338.521 742.521,335.188 739.5,331.5C 742.15,328.349 744.984,325.349 748,322.5C 750.04,324.37 751.873,326.37 753.5,328.5 Z"/></g>
<g><path style="opacity:0.146" fill="#323230" d="M 947.5,252.5 C 950.241,255.534 951.741,259.201 952,263.5C 952.5,445.5 952.667,627.5 952.5,809.5C 952.167,809.5 951.833,809.5 951.5,809.5C 951.5,688.167 951.5,566.833 951.5,445.5C 951.667,385.832 951.5,326.166 951,266.5C 950.139,261.724 948.973,257.057 947.5,252.5 Z"/></g>
<g><path style="opacity:0.857" fill="#c3c3c2" d="M 759.5,351.5 C 761.857,351.337 764.19,351.503 766.5,352C 768.565,353.979 770.732,355.812 773,357.5C 773.498,360.482 773.665,363.482 773.5,366.5C 768.917,361.578 764.251,356.578 759.5,351.5 Z"/></g>
<g><path style="opacity:0.991" fill="#f5f5f4" d="M 753.5,328.5 C 766.965,341.465 780.299,354.631 793.5,368C 780.299,381.7 766.966,395.2 753.5,408.5C 750.5,408.5 747.5,408.5 744.5,408.5C 744.5,405.5 744.5,402.5 744.5,399.5C 754.131,389.368 763.964,379.368 774,369.5C 774.47,368.423 774.303,367.423 773.5,366.5C 773.665,363.482 773.498,360.482 773,357.5C 770.732,355.812 768.565,353.979 766.5,352C 764.19,351.503 761.857,351.337 759.5,351.5C 755.833,348.5 752.5,345.167 749.5,341.5C 749.5,337.167 749.5,332.833 749.5,328.5C 750.833,328.5 752.167,328.5 753.5,328.5 Z"/></g>
<g><path style="opacity:0.893" fill="#c3c3c2" d="M 744.5,399.5 C 744.5,402.5 744.5,405.5 744.5,408.5C 747.5,408.5 750.5,408.5 753.5,408.5C 752.121,411.073 750.121,412.573 747.5,413C 744.94,410.029 742.273,407.196 739.5,404.5C 740.855,402.479 742.521,400.812 744.5,399.5 Z"/></g>
<g><path style="opacity:1" fill="#04ed76" d="M 720.5,573.5 C 708.674,574.331 696.674,574.831 684.5,575C 682.545,577.746 680.878,580.58 679.5,583.5C 639.701,544.201 600.035,504.701 560.5,465C 577.5,464.333 594.5,464.333 611.5,465C 647.701,501.368 684.035,537.535 720.5,573.5 Z"/></g>
<g><path style="opacity:1" fill="#03ed76" d="M 796.5,573.5 C 788.01,574.33 779.343,574.83 770.5,575C 769.663,576.011 769.33,577.178 769.5,578.5C 731.632,541.133 693.632,503.3 655.5,465C 672.5,464.333 689.5,464.333 706.5,465C 736.333,494.833 766.167,524.667 796,554.5C 796.5,560.825 796.666,567.158 796.5,573.5 Z"/></g>
<g><path style="opacity:1" fill="#00eb75" d="M 749.5,465.5 C 764.991,464.504 780.658,464.17 796.5,464.5C 796.667,480.17 796.5,495.837 796,511.5C 780.632,495.965 765.132,480.632 749.5,465.5 Z"/></g>
<g><path style="opacity:1" fill="#0b4925" d="M 515.5,515.5 C 514.504,529.323 514.171,543.323 514.5,557.5C 513.339,543.006 513.172,528.339 514,513.5C 514.717,514.044 515.217,514.711 515.5,515.5 Z"/></g>
<g><path style="opacity:1" fill="#0f110d" d="M 515.5,515.5 C 536.167,535.5 556.5,555.833 576.5,576.5C 576.059,585.276 576.559,593.942 578,602.5C 584.41,603.478 590.91,603.811 597.5,603.5C 597.5,615.833 597.5,628.167 597.5,640.5C 569.5,613.167 541.833,585.5 514.5,557.5C 514.171,543.323 514.504,529.323 515.5,515.5 Z"/></g>
<g><path style="opacity:1" fill="#fdfefe" d="M 208.5,576.5 C 208.167,596.178 208.5,615.845 209.5,635.5C 210.107,635.376 210.44,635.043 210.5,634.5C 212.756,627.982 215.589,621.649 219,615.5C 221.536,612.234 224.869,610.9 229,611.5C 233.936,611.031 237.936,612.698 241,616.5C 243.515,622.193 246.015,627.859 248.5,633.5C 248.369,634.376 248.702,635.043 249.5,635.5C 250.5,616.178 250.833,596.845 250.5,577.5C 250.414,576.504 250.748,575.671 251.5,575C 262.077,574.181 272.577,574.348 283,575.5C 283.667,600.167 283.667,624.833 283,649.5C 280.071,659.621 276.737,669.621 273,679.5C 272.215,681.286 271.049,682.786 269.5,684C 260.065,684.945 250.732,684.611 241.5,683C 237.977,674.083 235.144,664.916 233,655.5C 231.419,652.447 229.086,651.78 226,653.5C 223.022,662.744 220.356,672.077 218,681.5C 217.097,682.701 215.931,683.535 214.5,684C 205.833,684.667 197.167,684.667 188.5,684C 187.667,683.167 186.833,682.333 186,681.5C 181.931,670.626 178.264,659.626 175,648.5C 174.333,624.5 174.333,600.5 175,576.5C 175.5,576 176,575.5 176.5,575C 186.833,574.333 197.167,574.333 207.5,575C 208.056,575.383 208.389,575.883 208.5,576.5 Z"/></g>
<g><path style="opacity:1" fill="#fdfefe" d="M 296.5,655.5 C 302.5,655.5 308.5,655.5 314.5,655.5C 314.83,637.992 314.497,620.659 313.5,603.5C 307.491,603.666 301.491,603.499 295.5,603C 295,602.5 294.5,602 294,601.5C 293.333,593.167 293.333,584.833 294,576.5C 294.5,576 295,575.5 295.5,575C 320.072,574.173 344.572,574.339 369,575.5C 369.667,584.167 369.667,592.833 369,601.5C 368.5,602 368,602.5 367.5,603C 361.509,603.499 355.509,603.666 349.5,603.5C 349.5,620.833 349.5,638.167 349.5,655.5C 355.509,655.334 361.509,655.501 367.5,656C 368,656.5 368.5,657 369,657.5C 369.667,665.833 369.667,674.167 369,682.5C 368.5,683 368,683.5 367.5,684C 343.5,684.667 319.5,684.667 295.5,684C 295,683.5 294.5,683 294,682.5C 293.333,674.167 293.333,665.833 294,657.5C 294.708,656.619 295.542,655.953 296.5,655.5 Z"/></g>
<g><path style="opacity:1" fill="#fcfefd" d="M 382.5,574.5 C 393.172,574.333 403.839,574.5 414.5,575C 415,575.5 415.5,576 416,576.5C 416.5,602.831 416.667,629.165 416.5,655.5C 423.5,655.5 430.5,655.5 437.5,655.5C 437.334,646.161 437.5,636.827 438,627.5C 438.5,627 439,626.5 439.5,626C 449.167,625.333 458.833,625.333 468.5,626C 469,626.5 469.5,627 470,627.5C 470.667,645.5 470.667,663.5 470,681.5C 469.5,682.667 468.667,683.5 467.5,684C 439.5,684.667 411.5,684.667 383.5,684C 383,683.5 382.5,683 382,682.5C 381.18,646.458 381.346,610.458 382.5,574.5 Z"/></g>
<g><path style="opacity:1" fill="#fdfefe" d="M 514.5,609.5 C 514.5,624.833 514.5,640.167 514.5,655.5C 515.5,655.5 516.5,655.5 517.5,655.5C 523.833,655.5 530.167,655.5 536.5,655.5C 536.5,647.167 536.5,638.833 536.5,630.5C 536.421,629.07 536.754,627.736 537.5,626.5C 547.483,625.334 557.483,625.168 567.5,626C 568,626.5 568.5,627 569,627.5C 569.5,639.829 569.667,652.162 569.5,664.5C 569.666,670.509 569.499,676.509 569,682.5C 568.5,683 568,683.5 567.5,684C 560.842,684.5 554.175,684.666 547.5,684.5C 525.831,684.667 504.164,684.5 482.5,684C 482,683.5 481.5,683 481,682.5C 480.333,646.833 480.333,611.167 481,575.5C 492,574.167 503,574.167 514,575.5C 514.5,586.828 514.667,598.162 514.5,609.5 Z"/></g>
<g><path style="opacity:1" fill="#fcfcfc" d="M 625.5,573.5 C 633.84,573.334 642.173,573.5 650.5,574C 651.333,574.833 652.167,575.667 653,576.5C 653.5,584.827 653.666,593.16 653.5,601.5C 652.527,601.987 651.527,602.487 650.5,603C 644.509,603.499 638.509,603.666 632.5,603.5C 632.5,613.167 632.5,622.833 632.5,632.5C 632.5,640.167 632.5,647.833 632.5,655.5C 638.167,655.5 643.833,655.5 649.5,655.5C 651.017,655.511 652.184,656.177 653,657.5C 653.667,665.833 653.667,674.167 653,682.5C 652.5,683 652,683.5 651.5,684C 648.183,684.498 644.85,684.665 641.5,684.5C 624.5,684.5 607.5,684.5 590.5,684.5C 578.5,687.167 573.833,682.5 576.5,670.5C 576.334,666.486 576.501,662.486 577,658.5C 577.374,657.584 577.874,656.75 578.5,656C 584.825,655.5 591.158,655.334 597.5,655.5C 597.5,650.5 597.5,645.5 597.5,640.5C 597.5,628.167 597.5,615.833 597.5,603.5C 590.91,603.811 584.41,603.478 578,602.5C 576.559,593.942 576.059,585.276 576.5,576.5C 577.289,576.217 577.956,575.717 578.5,575C 594.339,574.831 610.005,574.331 625.5,573.5 Z"/></g>
<g><path style="opacity:1" fill="#fcfdfd" d="M 720.5,573.5 C 724.846,573.334 729.179,573.501 733.5,574C 735.286,574.785 736.786,575.951 738,577.5C 741.468,585.41 744.635,593.41 747.5,601.5C 751.16,610.646 754.327,619.979 757,629.5C 757.169,641.007 757.669,652.341 758.5,663.5C 758.666,669.509 758.499,675.509 758,681.5C 757.692,682.308 757.192,682.975 756.5,683.5C 749.892,684.462 743.226,684.795 736.5,684.5C 725.167,687.167 720.833,682.833 723.5,671.5C 723.5,666.833 723.5,662.167 723.5,657.5C 718.833,657.5 714.167,657.5 709.5,657.5C 704.833,657.5 700.167,657.5 695.5,657.5C 695.666,665.84 695.5,674.173 695,682.5C 692.174,684.34 689.007,685.006 685.5,684.5C 678.492,684.666 671.492,684.5 664.5,684C 664,683.5 663.5,683 663,682.5C 662.5,675.508 662.334,668.508 662.5,661.5C 662.334,651.828 662.5,642.161 663,632.5C 663.994,626.686 665.494,621.02 667.5,615.5C 671.699,604.904 675.699,594.237 679.5,583.5C 680.878,580.58 682.545,577.746 684.5,575C 696.674,574.831 708.674,574.331 720.5,573.5 Z"/></g>
<g><path style="opacity:1" fill="#fdfdfd" d="M 796.5,573.5 C 800.426,573.047 803.592,574.38 806,577.5C 810.333,585.5 814.667,593.5 819,601.5C 821.575,607.651 824.575,607.985 828,602.5C 832.787,593.09 837.953,583.924 843.5,575C 854.068,573.381 864.735,573.048 875.5,574C 876.333,574.833 877.167,575.667 878,576.5C 878.667,611.833 878.667,647.167 878,682.5C 877.5,683 877,683.5 876.5,684C 865.923,684.819 855.423,684.652 845,683.5C 843.691,664.59 843.025,645.59 843,626.5C 839.693,633.631 835.526,640.131 830.5,646C 825.833,646.667 821.167,646.667 816.5,646C 815.069,645.535 813.903,644.701 813,643.5C 809.906,637.922 807.072,632.256 804.5,626.5C 804.44,625.957 804.107,625.624 803.5,625.5C 802.5,643.821 802.167,662.155 802.5,680.5C 802.532,682.619 801.532,683.952 799.5,684.5C 798.5,684.5 797.5,684.5 796.5,684.5C 791.167,684.5 785.833,684.5 780.5,684.5C 771.167,686.5 767.5,682.833 769.5,673.5C 769.5,656.5 769.5,639.5 769.5,622.5C 769.5,607.833 769.5,593.167 769.5,578.5C 769.33,577.178 769.663,576.011 770.5,575C 779.343,574.83 788.01,574.33 796.5,573.5 Z"/></g>
<g><path style="opacity:1" fill="#c5fbdf" d="M 208.5,576.5 C 209.167,595.833 209.833,615.167 210.5,634.5C 210.44,635.043 210.107,635.376 209.5,635.5C 208.5,615.845 208.167,596.178 208.5,576.5 Z"/></g>
<g><path style="opacity:1" fill="#b2f9d5" d="M 250.5,577.5 C 250.833,596.845 250.5,616.178 249.5,635.5C 248.702,635.043 248.369,634.376 248.5,633.5C 249.167,614.833 249.833,596.167 250.5,577.5 Z"/></g>
<g><path style="opacity:1" fill="#10ee78" d="M 653.5,601.5 C 657.833,606.5 662.5,611.167 667.5,615.5C 665.494,621.02 663.994,626.686 663,632.5C 662.5,642.161 662.334,651.828 662.5,661.5C 652.833,652.167 643.167,642.833 633.5,633.5C 633.5,632.833 633.167,632.5 632.5,632.5C 632.5,622.833 632.5,613.167 632.5,603.5C 638.509,603.666 644.509,603.499 650.5,603C 651.527,602.487 652.527,601.987 653.5,601.5 Z"/></g>
<g><path style="opacity:1" fill="#5af3a4" d="M 313.5,603.5 C 314.497,620.659 314.83,637.992 314.5,655.5C 308.5,655.5 302.5,655.5 296.5,655.5C 301.975,654.511 307.642,654.178 313.5,654.5C 313.5,637.5 313.5,620.5 313.5,603.5 Z"/></g>
<g><path style="opacity:1" fill="#22ee7c" d="M 720.5,624.5 C 715.167,619.5 709.833,614.5 704.5,609.5C 704.924,603.682 707.924,602.015 713.5,604.5C 716.221,610.995 718.555,617.662 720.5,624.5 Z"/></g>
<g><path style="opacity:1" fill="#24ee7d" d="M 747.5,601.5 C 754.833,608.5 762.167,615.5 769.5,622.5C 769.5,639.5 769.5,656.5 769.5,673.5C 765.833,670.167 762.167,666.833 758.5,663.5C 757.669,652.341 757.169,641.007 757,629.5C 754.327,619.979 751.16,610.646 747.5,601.5 Z"/></g>
<g><path style="opacity:1" fill="#949c95" d="M 514.5,609.5 C 515.167,609.5 515.5,609.833 515.5,610.5C 515.333,624.837 515.5,639.171 516,653.5C 516.717,654.044 517.217,654.711 517.5,655.5C 516.5,655.5 515.5,655.5 514.5,655.5C 514.5,640.167 514.5,624.833 514.5,609.5 Z"/></g>
<g><path style="opacity:1" fill="#141612" d="M 704.5,609.5 C 709.833,614.5 715.167,619.5 720.5,624.5C 721.038,626.117 721.371,627.784 721.5,629.5C 713.472,629.831 705.472,629.498 697.5,628.5C 699.391,621.888 701.724,615.555 704.5,609.5 Z"/></g>
<g><path style="opacity:1" fill="#121210" d="M 515.5,610.5 C 522.5,617.167 529.5,623.833 536.5,630.5C 536.5,638.833 536.5,647.167 536.5,655.5C 530.167,655.5 523.833,655.5 517.5,655.5C 517.217,654.711 516.717,654.044 516,653.5C 515.5,639.171 515.333,624.837 515.5,610.5 Z"/></g>
<g><path style="opacity:0.131" fill="#0c2414" d="M 74.5,760.5 C 74.5,627.167 74.5,493.833 74.5,360.5C 75.3304,350.008 75.8304,339.341 76,328.5C 76.6667,478.833 76.6667,629.167 76,779.5C 75.8279,772.987 75.3279,766.653 74.5,760.5 Z"/></g>
<g><path style="opacity:1" fill="#a4a4a3" d="M 804.5,626.5 C 803.833,644.5 803.167,662.5 802.5,680.5C 802.167,662.155 802.5,643.821 803.5,625.5C 804.107,625.624 804.44,625.957 804.5,626.5 Z"/></g>
<g><path style="opacity:1" fill="#10110e" d="M 633.5,633.5 C 643.167,642.833 652.833,652.167 662.5,661.5C 662.334,668.508 662.5,675.508 663,682.5C 663.5,683 664,683.5 664.5,684C 671.492,684.5 678.492,684.666 685.5,684.5C 691.631,691.131 697.964,697.631 704.5,704C 687.632,721.035 670.632,737.868 653.5,754.5C 652.317,753.496 650.984,752.662 649.5,752C 637.505,751.5 625.505,751.333 613.5,751.5C 628.812,735.521 644.479,719.854 660.5,704.5C 654.145,697.813 647.812,691.146 641.5,684.5C 644.85,684.665 648.183,684.498 651.5,684C 652,683.5 652.5,683 653,682.5C 653.667,674.167 653.667,665.833 653,657.5C 652.184,656.177 651.017,655.511 649.5,655.5C 644.36,654.512 639.026,654.179 633.5,654.5C 633.5,647.5 633.5,640.5 633.5,633.5 Z"/></g>
<g><path style="opacity:1" fill="#6a6a69" d="M 632.5,632.5 C 633.167,632.5 633.5,632.833 633.5,633.5C 633.5,640.5 633.5,647.5 633.5,654.5C 639.026,654.179 644.36,654.512 649.5,655.5C 643.833,655.5 638.167,655.5 632.5,655.5C 632.5,647.833 632.5,640.167 632.5,632.5 Z"/></g>
<g><path style="opacity:1" fill="#05ee77" d="M 709.5,657.5 C 713.833,662.5 718.5,667.167 723.5,671.5C 720.833,682.833 725.167,687.167 736.5,684.5C 742.631,691.131 748.964,697.631 755.5,704C 739.632,719.701 723.965,735.535 708.5,751.5C 691.787,752.88 682.787,761.88 681.5,778.5C 676.833,782.833 672.167,787.167 667.5,791.5C 662.838,779.183 658.171,766.849 653.5,754.5C 670.632,737.868 687.632,721.035 704.5,704C 697.964,697.631 691.631,691.131 685.5,684.5C 689.007,685.006 692.174,684.34 695,682.5C 695.5,674.173 695.666,665.84 695.5,657.5C 700.167,657.5 704.833,657.5 709.5,657.5 Z"/></g>
<g><path style="opacity:1" fill="#181b18" d="M 709.5,657.5 C 714.167,657.5 718.833,657.5 723.5,657.5C 723.5,662.167 723.5,666.833 723.5,671.5C 718.5,667.167 713.833,662.5 709.5,657.5 Z"/></g>
<g><path style="opacity:1" fill="#0f0f0c" d="M 569.5,664.5 C 571.833,666.5 574.167,668.5 576.5,670.5C 573.833,682.5 578.5,687.167 590.5,684.5C 596.631,691.131 602.964,697.631 609.5,704C 593.632,719.701 577.965,735.535 562.5,751.5C 548.167,751.5 533.833,751.5 519.5,751.5C 534.812,735.854 550.145,720.187 565.5,704.5C 559.085,698.092 553.085,691.425 547.5,684.5C 554.175,684.666 560.842,684.5 567.5,684C 568,683.5 568.5,683 569,682.5C 569.499,676.509 569.666,670.509 569.5,664.5 Z"/></g>
<g><path style="opacity:1" fill="#0f110e" d="M 758.5,663.5 C 762.167,666.833 765.833,670.167 769.5,673.5C 767.5,682.833 771.167,686.5 780.5,684.5C 785.464,689.965 790.63,695.298 796,700.5C 796.499,695.177 796.666,689.844 796.5,684.5C 797.5,684.5 798.5,684.5 799.5,684.5C 797.842,740.453 796.842,796.453 796.5,852.5C 796.667,835.83 796.5,819.163 796,802.5C 786.632,812.036 777.132,821.369 767.5,830.5C 766.833,825.167 766.167,819.833 765.5,814.5C 765.514,807.53 762.848,801.863 757.5,797.5C 770.131,784.368 782.965,771.368 796,758.5C 796.667,741.5 796.667,724.5 796,707.5C 781.298,722.035 766.798,736.701 752.5,751.5C 737.833,751.5 723.167,751.5 708.5,751.5C 723.965,735.535 739.632,719.701 755.5,704C 748.964,697.631 742.631,691.131 736.5,684.5C 743.226,684.795 749.892,684.462 756.5,683.5C 757.192,682.975 757.692,682.308 758,681.5C 758.499,675.509 758.666,669.509 758.5,663.5 Z"/></g>
<g><path style="opacity:1" fill="#02ee76" d="M 590.5,684.5 C 607.5,684.5 624.5,684.5 641.5,684.5C 647.812,691.146 654.145,697.813 660.5,704.5C 644.479,719.854 628.812,735.521 613.5,751.5C 609.033,751.133 604.7,751.633 600.5,753C 597.082,759.668 594.082,766.502 591.5,773.5C 576.833,787.833 562.167,802.167 547.5,816.5C 547.5,804.833 547.5,793.167 547.5,781.5C 555.352,781.825 563.018,781.492 570.5,780.5C 572.411,780.426 573.578,779.426 574,777.5C 574.667,769.833 574.667,762.167 574,754.5C 573.167,753.667 572.333,752.833 571.5,752C 568.518,751.502 565.518,751.335 562.5,751.5C 577.965,735.535 593.632,719.701 609.5,704C 602.964,697.631 596.631,691.131 590.5,684.5 Z"/></g>
<g><path style="opacity:1" fill="#06ee77" d="M 780.5,684.5 C 785.833,684.5 791.167,684.5 796.5,684.5C 796.666,689.844 796.499,695.177 796,700.5C 790.63,695.298 785.464,689.965 780.5,684.5 Z"/></g>
<g><path style="opacity:1" fill="#06ee77" d="M 757.5,797.5 C 752.714,795.55 747.714,794.05 742.5,793C 734.473,792.218 726.473,791.218 718.5,790C 717.177,789.184 716.511,788.017 716.5,786.5C 718.833,784.833 720.833,782.833 722.5,780.5C 734.551,780.813 746.551,780.479 758.5,779.5C 759.192,778.975 759.692,778.308 760,777.5C 760.667,769.833 760.667,762.167 760,754.5C 758.195,751.961 755.695,750.961 752.5,751.5C 766.798,736.701 781.298,722.035 796,707.5C 796.667,724.5 796.667,741.5 796,758.5C 782.965,771.368 770.131,784.368 757.5,797.5 Z"/></g>
<g><path style="opacity:1" fill="#01cb65" d="M 143.5,320.5 C 143.833,320.5 144.167,320.5 144.5,320.5C 144.5,451.833 144.5,583.167 144.5,714.5C 264.167,714.5 383.833,714.5 503.5,714.5C 503.912,716.973 502.912,718.306 500.5,718.5C 500.953,717.542 501.619,716.708 502.5,716C 382.834,715.5 263.167,715.333 143.5,715.5C 143.5,583.833 143.5,452.167 143.5,320.5 Z"/></g>
<g><path style="opacity:1" fill="#fbfbfb" d="M 178.5,751.5 C 199.503,751.333 220.503,751.5 241.5,752C 255.822,753.332 264.989,760.832 269,774.5C 269.667,794.5 269.667,814.5 269,834.5C 266.473,851.212 256.64,859.712 239.5,860C 219.167,860.667 198.833,860.667 178.5,860C 177.692,859.692 177.025,859.192 176.5,858.5C 175.34,823.542 175.174,788.542 176,753.5C 176.995,752.934 177.828,752.267 178.5,751.5 Z"/></g>
<g><path style="opacity:1" fill="#fcfcfc" d="M 338.5,834.5 C 329.682,833.507 320.682,833.173 311.5,833.5C 311.5,841.167 311.5,848.833 311.5,856.5C 311.489,858.017 310.823,859.184 309.5,860C 299.833,860.667 290.167,860.667 280.5,860C 279.874,859.25 279.374,858.416 279,857.5C 278.333,840.833 278.333,824.167 279,807.5C 284.603,790.692 290.603,774.025 297,757.5C 298.122,755.376 299.622,753.543 301.5,752C 317.167,751.333 332.833,751.333 348.5,752C 350.939,752.774 352.773,754.274 354,756.5C 360.598,773.295 366.598,790.295 372,807.5C 372.667,824.5 372.667,841.5 372,858.5C 371.5,859 371,859.5 370.5,860C 360.453,860.808 350.453,860.641 340.5,859.5C 339.808,858.975 339.308,858.308 339,857.5C 338.5,849.841 338.334,842.174 338.5,834.5 Z"/></g>
<g><path style="opacity:1" fill="#fcfcfc" d="M 441.5,787.5 C 441.56,788.043 441.893,788.376 442.5,788.5C 443.499,777.186 443.832,765.853 443.5,754.5C 443.953,753.542 444.619,752.708 445.5,752C 452.826,751.5 460.159,751.334 467.5,751.5C 471.013,750.876 473.847,751.876 476,754.5C 476.5,767.162 476.667,779.829 476.5,792.5C 476.5,807.167 476.5,821.833 476.5,836.5C 476.799,843.891 476.465,851.224 475.5,858.5C 474.975,859.192 474.308,859.692 473.5,860C 469.514,860.499 465.514,860.666 461.5,860.5C 461.167,860.5 460.833,860.5 460.5,860.5C 455.489,860.666 450.489,860.499 445.5,860C 444.667,859.167 443.833,858.333 443,857.5C 442.667,850.167 442.333,842.833 442,835.5C 434.158,825.803 426.325,816.136 418.5,806.5C 418.44,805.957 418.107,805.624 417.5,805.5C 416.5,822.821 416.167,840.154 416.5,857.5C 416.423,858.75 415.756,859.583 414.5,860C 404.833,860.667 395.167,860.667 385.5,860C 385,859.5 384.5,859 384,858.5C 383.333,823.5 383.333,788.5 384,753.5C 384.75,752.874 385.584,752.374 386.5,752C 394.579,751.099 402.579,751.432 410.5,753C 421.411,764.073 431.744,775.573 441.5,787.5 Z"/></g>
<g><path style="opacity:1" fill="#fcfefd" d="M 519.5,751.5 C 533.833,751.5 548.167,751.5 562.5,751.5C 565.518,751.335 568.518,751.502 571.5,752C 572.333,752.833 573.167,753.667 574,754.5C 574.667,762.167 574.667,769.833 574,777.5C 573.578,779.426 572.411,780.426 570.5,780.5C 562.5,780.5 554.5,780.5 546.5,780.5C 546.5,792.833 546.5,805.167 546.5,817.5C 546.667,831.171 546.5,844.837 546,858.5C 545.5,859 545,859.5 544.5,860C 534.167,860.667 523.833,860.667 513.5,860C 511.771,858.211 511.104,856.044 511.5,853.5C 511.5,836.5 511.5,819.5 511.5,802.5C 511.5,795.167 511.5,787.833 511.5,780.5C 503.833,780.5 496.167,780.5 488.5,780.5C 486.089,780.863 484.589,779.863 484,777.5C 483.333,769.833 483.333,762.167 484,754.5C 484.833,753.667 485.667,752.833 486.5,752C 497.495,751.5 508.495,751.333 519.5,751.5 Z"/></g>
<g><path style="opacity:1" fill="#fcfdfd" d="M 613.5,751.5 C 625.505,751.333 637.505,751.5 649.5,752C 650.984,752.662 652.317,753.496 653.5,754.5C 658.171,766.849 662.838,779.183 667.5,791.5C 672.876,803.589 674.876,816.256 673.5,829.5C 672.692,839.09 672.192,848.756 672,858.5C 671.5,859 671,859.5 670.5,860C 661.173,860.5 651.839,860.666 642.5,860.5C 641.167,859.833 640.167,858.833 639.5,857.5C 639.5,849.5 639.5,841.5 639.5,833.5C 634.833,833.5 630.167,833.5 625.5,833.5C 620.833,833.5 616.167,833.5 611.5,833.5C 611.181,838.363 611.514,843.03 612.5,847.5C 614.657,859.007 609.99,863.34 598.5,860.5C 592.824,860.666 587.157,860.499 581.5,860C 581,859.5 580.5,859 580,858.5C 579.5,848.839 579.334,839.172 579.5,829.5C 579.334,821.826 579.5,814.159 580,806.5C 583.14,795.246 586.973,784.246 591.5,773.5C 594.082,766.502 597.082,759.668 600.5,753C 604.7,751.633 609.033,751.133 613.5,751.5 Z"/></g>
<g><path style="opacity:1" fill="#fdfdfd" d="M 708.5,751.5 C 723.167,751.5 737.833,751.5 752.5,751.5C 755.695,750.961 758.195,751.961 760,754.5C 760.667,762.167 760.667,769.833 760,777.5C 759.692,778.308 759.192,778.975 758.5,779.5C 746.551,780.479 734.551,780.813 722.5,780.5C 717.249,779.788 715.249,781.788 716.5,786.5C 716.511,788.017 717.177,789.184 718.5,790C 726.473,791.218 734.473,792.218 742.5,793C 747.714,794.05 752.714,795.55 757.5,797.5C 762.848,801.863 765.514,807.53 765.5,814.5C 765.5,820.5 765.5,826.5 765.5,832.5C 766.355,844.968 761.022,853.468 749.5,858C 745.56,859.156 741.56,859.99 737.5,860.5C 722.833,860.5 708.167,860.5 693.5,860.5C 690.482,860.665 687.482,860.498 684.5,860C 683.333,859.5 682.5,858.667 682,857.5C 681.333,849.833 681.333,842.167 682,834.5C 682.5,834 683,833.5 683.5,833C 696.908,832.815 710.242,832.315 723.5,831.5C 729.82,832.52 732.154,830.186 730.5,824.5C 730.389,823.883 730.056,823.383 729.5,823C 719.189,821.172 708.856,819.505 698.5,818C 695.216,816.967 692.216,815.467 689.5,813.5C 685.604,810.424 683.104,806.424 682,801.5C 681.5,793.841 681.334,786.174 681.5,778.5C 682.787,761.88 691.787,752.88 708.5,751.5 Z"/></g>
<g><path style="opacity:1" fill="#888887" d="M 443.5,754.5 C 443.832,765.853 443.499,777.186 442.5,788.5C 441.893,788.376 441.56,788.043 441.5,787.5C 442.167,776.5 442.833,765.5 443.5,754.5 Z"/></g>
<g><path style="opacity:1" fill="#131210" d="M 210.5,780.5 C 232.557,775.223 240.89,783.557 235.5,805.5C 235.619,813.573 235.119,821.573 234,829.5C 233.25,830.126 232.416,830.626 231.5,831C 224.508,831.5 217.508,831.666 210.5,831.5C 210.5,814.5 210.5,797.5 210.5,780.5 Z"/></g>
<g><path style="opacity:1" fill="#252d26" d="M 627.5,781.5 C 624.833,783.833 622.167,786.167 619.5,788.5C 619.354,782.284 622.02,779.951 627.5,781.5 Z"/></g>
<g><path style="opacity:1" fill="#171615" d="M 322.5,780.5 C 324.792,780.244 326.959,780.577 329,781.5C 332.088,789.67 334.588,798.004 336.5,806.5C 328.833,806.5 321.167,806.5 313.5,806.5C 315.321,797.368 318.321,788.701 322.5,780.5 Z"/></g>
<g><path style="opacity:1" fill="#0f0f0d" d="M 488.5,781.5 C 495.833,781.5 503.167,781.5 510.5,781.5C 510.5,788.5 510.5,795.5 510.5,802.5C 499.5,814.167 488.167,825.5 476.5,836.5C 476.5,821.833 476.5,807.167 476.5,792.5C 481.105,789.564 485.105,785.898 488.5,781.5 Z"/></g>
<g><path style="opacity:1" fill="#4d4d4c" d="M 488.5,781.5 C 488.5,781.167 488.5,780.833 488.5,780.5C 496.167,780.5 503.833,780.5 511.5,780.5C 511.5,787.833 511.5,795.167 511.5,802.5C 511.167,802.5 510.833,802.5 510.5,802.5C 510.5,795.5 510.5,788.5 510.5,781.5C 503.167,781.5 495.833,781.5 488.5,781.5 Z"/></g>
<g><path style="opacity:1" fill="#121310" d="M 681.5,778.5 C 681.334,786.174 681.5,793.841 682,801.5C 683.104,806.424 685.604,810.424 689.5,813.5C 684.5,819.167 679.167,824.5 673.5,829.5C 674.876,816.256 672.876,803.589 667.5,791.5C 672.167,787.167 676.833,782.833 681.5,778.5 Z"/></g>
<g><path style="opacity:1" fill="#4ef39f" d="M 570.5,780.5 C 563.018,781.492 555.352,781.825 547.5,781.5C 547.5,793.167 547.5,804.833 547.5,816.5C 547.5,817.167 547.167,817.5 546.5,817.5C 546.5,805.167 546.5,792.833 546.5,780.5C 554.5,780.5 562.5,780.5 570.5,780.5 Z"/></g>
<g><path style="opacity:1" fill="#212922" d="M 722.5,780.5 C 720.833,782.833 718.833,784.833 716.5,786.5C 715.249,781.788 717.249,779.788 722.5,780.5 Z"/></g>
<g><path style="opacity:1" fill="#1def7c" d="M 627.5,781.5 C 629.411,781.574 630.578,782.574 631,784.5C 633.275,791.822 635.441,799.155 637.5,806.5C 629.472,806.831 621.472,806.498 613.5,805.5C 615.352,799.743 617.352,794.076 619.5,788.5C 622.167,786.167 624.833,783.833 627.5,781.5 Z"/></g>
<g><path style="opacity:0.113" fill="#171614" d="M 75.5,991.5 C 74.5024,968.006 74.1691,944.339 74.5,920.5C 75.3327,874.002 75.8327,827.335 76,780.5C 76.8321,851.001 76.6655,921.335 75.5,991.5 Z"/></g>
<g><path style="opacity:1" fill="#04ee77" d="M 510.5,802.5 C 510.833,802.5 511.167,802.5 511.5,802.5C 511.5,819.5 511.5,836.5 511.5,853.5C 494.833,869.5 478.5,885.833 462.5,902.5C 461.504,888.677 461.171,874.677 461.5,860.5C 465.514,860.666 469.514,860.499 473.5,860C 474.308,859.692 474.975,859.192 475.5,858.5C 476.465,851.224 476.799,843.891 476.5,836.5C 488.167,825.5 499.5,814.167 510.5,802.5 Z"/></g>
<g><path style="opacity:1" fill="#a7a6a5" d="M 418.5,806.5 C 417.833,823.5 417.167,840.5 416.5,857.5C 416.167,840.154 416.5,822.821 417.5,805.5C 418.107,805.624 418.44,805.957 418.5,806.5 Z"/></g>
<g><path style="opacity:1" fill="#01ee76" d="M 796.5,852.5 C 769.833,879.833 742.833,906.833 715.5,933.5C 698.658,933.83 681.992,933.497 665.5,932.5C 689.833,908.833 713.833,884.833 737.5,860.5C 741.56,859.99 745.56,859.156 749.5,858C 761.022,853.468 766.355,844.968 765.5,832.5C 766.5,832.167 767.167,831.5 767.5,830.5C 777.132,821.369 786.632,812.036 796,802.5C 796.5,819.163 796.667,835.83 796.5,852.5 Z"/></g>
<g><path style="opacity:1" fill="#0cee77" d="M 689.5,813.5 C 692.216,815.467 695.216,816.967 698.5,818C 708.856,819.505 719.189,821.172 729.5,823C 730.056,823.383 730.389,823.883 730.5,824.5C 727.833,826.5 725.5,828.833 723.5,831.5C 710.242,832.315 696.908,832.815 683.5,833C 683,833.5 682.5,834 682,834.5C 681.333,842.167 681.333,849.833 682,857.5C 682.5,858.667 683.333,859.5 684.5,860C 687.482,860.498 690.482,860.665 693.5,860.5C 669.5,885.167 645.167,909.5 620.5,933.5C 603.658,933.83 586.992,933.497 570.5,932.5C 594.833,908.833 618.833,884.833 642.5,860.5C 651.839,860.666 661.173,860.5 670.5,860C 671,859.5 671.5,859 672,858.5C 672.192,848.756 672.692,839.09 673.5,829.5C 679.167,824.5 684.5,819.167 689.5,813.5 Z"/></g>
<g><path style="opacity:1" fill="#7a7f7a" d="M 765.5,814.5 C 766.167,819.833 766.833,825.167 767.5,830.5C 767.167,831.5 766.5,832.167 765.5,832.5C 765.5,826.5 765.5,820.5 765.5,814.5 Z"/></g>
<g><path style="opacity:1" fill="#151915" d="M 730.5,824.5 C 732.154,830.186 729.82,832.52 723.5,831.5C 725.5,828.833 727.833,826.5 730.5,824.5 Z"/></g>
<g><path style="opacity:1" fill="#555453" d="M 338.5,834.5 C 329.833,834.5 321.167,834.5 312.5,834.5C 312.825,842.019 312.492,849.352 311.5,856.5C 311.5,848.833 311.5,841.167 311.5,833.5C 320.682,833.173 329.682,833.507 338.5,834.5 Z"/></g>
<g><path style="opacity:1" fill="#02ee76" d="M 579.5,829.5 C 579.334,839.172 579.5,848.839 580,858.5C 580.5,859 581,859.5 581.5,860C 587.157,860.499 592.824,860.666 598.5,860.5C 574.5,884.833 550.5,909.167 526.5,933.5C 509.325,933.83 492.325,933.497 475.5,932.5C 510.167,898.167 544.833,863.833 579.5,829.5 Z"/></g>
<g><path style="opacity:1" fill="#99f6c6" d="M 625.5,833.5 C 625.5,833.833 625.5,834.167 625.5,834.5C 625.167,834.5 624.833,834.5 624.5,834.5C 620.5,834.5 616.5,834.5 612.5,834.5C 612.5,838.5 612.5,842.5 612.5,846.5C 612.5,846.833 612.5,847.167 612.5,847.5C 611.514,843.03 611.181,838.363 611.5,833.5C 616.167,833.5 620.833,833.5 625.5,833.5 Z"/></g>
<g><path style="opacity:1" fill="#00ec74" d="M 624.5,834.5 C 620.833,838.833 616.833,842.833 612.5,846.5C 612.5,842.5 612.5,838.5 612.5,834.5C 616.5,834.5 620.5,834.5 624.5,834.5 Z"/></g>
<g><path style="opacity:1" fill="#848483" d="M 625.5,834.5 C 625.5,834.167 625.5,833.833 625.5,833.5C 630.167,833.5 634.833,833.5 639.5,833.5C 639.5,841.5 639.5,849.5 639.5,857.5C 638.508,850.018 638.175,842.352 638.5,834.5C 634.167,834.5 629.833,834.5 625.5,834.5 Z"/></g>
<g><path style="opacity:1" fill="#0b4d29" d="M 460.5,860.5 C 460.833,860.5 461.167,860.5 461.5,860.5C 461.171,874.677 461.504,888.677 462.5,902.5C 462.44,903.043 462.107,903.376 461.5,903.5C 460.501,889.182 460.167,874.849 460.5,860.5 Z"/></g>
<g><path style="opacity:1" fill="#00ea75" d="M 796.5,933.5 C 784.322,933.828 772.322,933.495 760.5,932.5C 772.569,920.586 784.402,908.586 796,896.5C 796.5,908.829 796.667,921.162 796.5,933.5 Z"/></g>
<g><path style="opacity:0.122" fill="#2b2a29" d="M 951.5,809.5 C 951.833,809.5 952.167,809.5 952.5,809.5C 952.667,870.834 952.5,932.168 952,993.5C 951.244,1000.44 948.911,1006.77 945,1012.5C 944.329,1013.25 943.496,1013.59 942.5,1013.5C 945.302,1009.56 947.302,1005.23 948.5,1000.5C 949.761,997.742 950.594,994.742 951,991.5C 951.5,930.834 951.667,870.168 951.5,809.5 Z"/></g>
<g><path style="opacity:1" fill="#086636" d="M 475.5,932.5 C 492.325,933.497 509.325,933.83 526.5,933.5C 509.329,934.827 491.995,934.827 474.5,933.5C 474.624,932.893 474.957,932.56 475.5,932.5 Z"/></g>
<g><path style="opacity:1" fill="#086836" d="M 570.5,932.5 C 586.992,933.497 603.658,933.83 620.5,933.5C 603.662,934.827 586.662,934.827 569.5,933.5C 569.624,932.893 569.957,932.56 570.5,932.5 Z"/></g>
<g><path style="opacity:1" fill="#086836" d="M 665.5,932.5 C 681.992,933.497 698.658,933.83 715.5,933.5C 698.662,934.827 681.662,934.827 664.5,933.5C 664.624,932.893 664.957,932.56 665.5,932.5 Z"/></g>
<g><path style="opacity:1" fill="#086937" d="M 760.5,932.5 C 772.322,933.495 784.322,933.828 796.5,933.5C 784.327,934.825 771.994,934.825 759.5,933.5C 759.624,932.893 759.957,932.56 760.5,932.5 Z"/></g>
<g><path style="opacity:0.161" fill="#1f1e1d" d="M 924.5,1028.5 C 924.53,1029.5 924.03,1030.16 923,1030.5C 919.557,1031.57 916.057,1032.4 912.5,1033C 646.167,1033.67 379.833,1033.67 113.5,1033C 110.053,1032.47 106.719,1031.64 103.5,1030.5C 103.917,1029.88 104.584,1029.54 105.5,1029.5C 108.755,1030.64 112.089,1031.47 115.5,1032C 380.833,1032.67 646.167,1032.67 911.5,1032C 915.932,1031.13 920.265,1029.97 924.5,1028.5 Z"/></g>
</svg>
